<svg xmlns="http://www.w3.org/2000/svg" width="100" height="100" viewBox="0 0 98.5601 98.5601">
	<g>
		<g>
			<circle fill="#FFFDE3" cx="49.28" cy="49.28" r="48"/>
			<path fill="#4D5152" d="M49.28,98.559C22.107,98.559,0,76.453,0,49.28S22.107,0,49.28,0c27.172,0,49.279,22.107,49.279,49.28
				S76.452,98.559,49.28,98.559z M49.28,2.56c-25.762,0-46.72,20.958-46.72,46.72s20.958,46.719,46.72,46.719
				S95.999,75.042,95.999,49.28S75.042,2.56,49.28,2.56z"/>
		</g>
	</g>
	<g>
		<g>
			<path fill="#FFB856" d="M43.496,74.346c0,6.568-3.442,7.689-7.689,7.689s-7.689-1.121-7.689-7.689
				c0-10.842,7.689-14.652,7.689-14.652S43.496,63.505,43.496,74.346z"/>
			<path fill="#FFB856" d="M30.004,49.539c-6.568,0-7.689-3.442-7.689-7.689s1.121-7.689,7.689-7.689
				c10.843,0,14.652,7.689,14.652,7.689S40.846,49.539,30.004,49.539z"/>
			<path fill="#FFB856" d="M55.969,34.299c-4.644-4.645-3.002-7.871,0-10.874c3.004-3.003,6.23-4.645,10.875,0
				c7.666,7.667,4.924,15.797,4.924,15.797S63.636,41.966,55.969,34.299z"/>
			<path fill="#FFB856" d="M67.29,56.391c4.643,4.644,3.002,7.871,0,10.873c-3.003,3.004-6.23,4.645-10.874,0
				c-7.667-7.666-4.925-15.797-4.925-15.797S59.622,48.724,67.29,56.391z"/>
		</g>
		<path fill="#4C5051" d="M35.807,83.311c-1.925,0-4.373-0.188-6.229-1.656c-1.841-1.457-2.736-3.848-2.736-7.309
			c0-5.982,2.251-9.941,4.14-12.208c2.071-2.487,4.17-3.544,4.258-3.587c0.357-0.178,0.776-0.178,1.133,0
			c0.088,0.043,2.188,1.1,4.258,3.587c1.889,2.267,4.14,6.226,4.14,12.208c0,3.461-0.896,5.852-2.736,7.309
			C40.18,83.124,37.732,83.311,35.807,83.311z M35.807,61.18c-0.661,0.435-1.808,1.301-2.94,2.684
			c-2.304,2.814-3.472,6.341-3.472,10.482c0,2.629,0.578,4.365,1.768,5.307c0.967,0.766,2.399,1.106,4.645,1.106
			c2.246,0,3.679-0.341,4.645-1.106c1.189-0.941,1.768-2.677,1.768-5.307c0-4.142-1.168-7.668-3.472-10.482
			C37.615,62.481,36.469,61.616,35.807,61.18z"/>
		<path fill="#4C5051" d="M30.004,50.815c-3.46,0-5.851-0.895-7.308-2.736c-1.469-1.856-1.657-4.304-1.657-6.229
			s0.188-4.373,1.657-6.229c1.457-1.841,3.848-2.736,7.308-2.736c5.982,0,9.941,2.251,12.209,4.14
			c2.486,2.071,3.543,4.17,3.586,4.258c0.177,0.357,0.177,0.776,0,1.134c-0.043,0.088-1.101,2.188-3.586,4.258
			C39.945,48.564,35.986,50.815,30.004,50.815z M30.004,35.438c-2.629,0-4.365,0.578-5.307,1.768
			c-0.765,0.966-1.106,2.399-1.106,4.645c0,2.246,0.341,3.679,1.106,4.646c0.941,1.189,2.677,1.768,5.307,1.768
			c4.142,0,7.669-1.168,10.482-3.472c1.382-1.132,2.249-2.279,2.685-2.941c-0.436-0.661-1.302-1.808-2.685-2.94
			C37.673,36.606,34.146,35.438,30.004,35.438z"/>
		<path fill="#4C5051" d="M68.142,40.975c-0.474,0-0.979-0.021-1.515-0.069c-2.938-0.268-7.329-1.475-11.56-5.705l0,0l0,0
			c-2.447-2.447-3.505-4.771-3.233-7.103c0.274-2.351,1.871-4.215,3.233-5.577c1.361-1.361,3.226-2.958,5.576-3.232
			c2.332-0.272,4.655,0.786,7.103,3.233c4.229,4.23,5.437,8.621,5.705,11.56c0.294,3.222-0.443,5.454-0.475,5.547
			c-0.127,0.377-0.424,0.674-0.802,0.802C72.098,40.458,70.532,40.975,68.142,40.975z M61.34,21.802
			c-0.135,0-0.269,0.008-0.402,0.023c-1.223,0.142-2.478,0.914-4.065,2.502c-1.589,1.588-2.36,2.842-2.503,4.066
			c-0.175,1.507,0.645,3.144,2.503,5.003l0,0c2.929,2.929,6.249,4.596,9.868,4.957c1.777,0.177,3.2-0.021,3.977-0.181
			c0.16-0.775,0.358-2.199,0.181-3.978c-0.36-3.619-2.028-6.938-4.956-9.867C64.246,22.632,62.737,21.802,61.34,21.802z"/>
		<path fill="#4C5051" d="M61.903,71.441c-2.095,0-4.192-1.076-6.391-3.274c-4.229-4.229-5.438-8.621-5.705-11.561
			c-0.293-3.223,0.443-5.453,0.475-5.547c0.128-0.377,0.424-0.674,0.802-0.801c0.094-0.032,2.325-0.769,5.548-0.476
			c2.939,0.269,7.33,1.476,11.561,5.706c2.447,2.446,3.504,4.77,3.232,7.102c-0.273,2.352-1.871,4.215-3.232,5.576
			s-3.226,2.96-5.576,3.233C62.377,71.427,62.139,71.441,61.903,71.441z M52.542,52.515c-0.16,0.774-0.358,2.199-0.182,3.979
			c0.361,3.619,2.029,6.939,4.958,9.867c1.858,1.859,3.495,2.678,5.002,2.503c1.225-0.144,2.479-0.915,4.066-2.503
			c1.589-1.588,2.36-2.842,2.503-4.066c0.174-1.506-0.643-3.143-2.503-5.002C60.564,51.471,54.493,52.11,52.542,52.515z"/>
		<path fill="#4C5051" d="M59.254,66.083c-0.311,0-0.621-0.111-0.866-0.338c-0.095-0.089-0.19-0.181-0.288-0.277
			c-0.498-0.5-0.498-1.308,0-1.806c0.499-0.498,1.308-0.498,1.805,0.001c0.073,0.072,0.145,0.142,0.217,0.207
			c0.518,0.479,0.549,1.287,0.07,1.805C59.94,65.946,59.597,66.083,59.254,66.083z"/>
		<path fill="#4C5051" d="M62.593,67.219c-0.545,0-1.05-0.352-1.22-0.9c-0.207-0.674,0.172-1.388,0.845-1.595
			c0.423-0.13,0.896-0.468,1.491-1.062c0.498-0.499,1.306-0.499,1.804,0c0.499,0.498,0.499,1.306,0,1.805
			c-0.566,0.565-1.446,1.357-2.544,1.696C62.844,67.202,62.717,67.219,62.593,67.219z"/>
	</g>
</svg>
