<svg xmlns="http://www.w3.org/2000/svg" width="100" height="100" viewBox="0 0 98.5601 98.5601">
	<g>
		<g>
			<circle fill="#FFFDE3" cx="49.28" cy="49.28" r="48"/>
			<path fill="#4D5152" d="M49.28,98.559C22.107,98.559,0,76.453,0,49.28S22.107,0,49.28,0c27.172,0,49.279,22.107,49.279,49.28
				S76.452,98.559,49.28,98.559z M49.28,2.56c-25.762,0-46.72,20.958-46.72,46.72s20.958,46.719,46.72,46.719
				S95.999,75.042,95.999,49.28S75.042,2.56,49.28,2.56z"/>
		</g>
	</g>
	<g>
		<path fill="#FFB856" stroke="#4C5051" stroke-width="2.5" d="M43.184,27.962c1.704-2.266,3.819-3.504,6.021-3.504
			s4.319,1.238,6.021,3.504c0.062-0.038,0.125-0.076,0.187-0.112c0.013-0.159,0.021-0.319,0.021-0.479
			c0-1.865-0.809-4.286-2.06-6.165c-1.274-1.914-2.794-3.012-4.17-3.012s-2.896,1.098-4.17,3.011c-1.251,1.88-2.06,4.301-2.06,6.166
			c0,0.159,0.009,0.319,0.021,0.479C43.059,27.885,43.122,27.924,43.184,27.962L43.184,27.962z"/>
		<path fill="#FFB856" stroke="#4C5051" stroke-width="2.5" d="M49.206,28.208c-2.441,0-5.058,4.447-5.058,7.578
			c0,0.702,0.143,1.383,0.414,2.008c1.365-1.082,2.935-1.755,4.644-1.755s3.278,0.673,4.644,1.755
			c0.271-0.626,0.414-1.306,0.414-2.008C54.263,32.655,51.647,28.208,49.206,28.208L49.206,28.208z"/>
		<path fill="#FFB856" stroke="#4C5051" stroke-width="2.5" d="M57.096,39.705c1.741-0.909,3.51-1.23,5.124-0.902
			c0.031-0.085,0.059-0.171,0.084-0.259c0.394-1.377,0.305-3.341-0.227-5.006c-0.516-1.616-1.378-2.74-2.309-3.007
			c-0.736-0.21-1.701,0.05-2.709,0.704c0.612,1.527,0.953,3.114,0.953,4.551C58.014,37.168,57.695,38.501,57.096,39.705
			L57.096,39.705z"/>
		<path fill="#FFB856" stroke="#4C5051" stroke-width="2.5" d="M57.99,43.54c0.771,1.846,1.201,3.768,1.201,5.433
			c0,1.779-0.477,3.516-1.362,5.032c2.366-1.564,4.82-2.208,7.031-1.817c0.445-1.661,0.333-3.978-0.293-5.942
			c-0.646-2.022-1.708-3.38-2.915-3.726C60.645,42.231,59.329,42.611,57.99,43.54L57.99,43.54z"/>
		<path fill="#FFB856" stroke="#4C5051" stroke-width="2.5" d="M49.206,48.85c2.159,0,4.13,0.916,5.816,2.365
			c0.273-0.71,0.419-1.47,0.419-2.243c0-1.866-0.81-4.288-2.062-6.17c-1.274-1.915-2.796-3.014-4.174-3.014
			c-1.377,0-2.899,1.099-4.174,3.014c-1.252,1.882-2.062,4.304-2.062,6.17c0,0.773,0.146,1.533,0.419,2.243
			C45.076,49.766,47.046,48.85,49.206,48.85z"/>
		<path fill="#FFB856" stroke="#4C5051" stroke-width="2.5" d="M49.206,52.6c-1.826,0-3.813,1.41-5.452,3.871
			c-1.573,2.364-2.59,5.416-2.59,7.776c0,3.788,2.635,6.972,6.167,7.819v10.128h3.75V72.067c3.532-0.848,6.167-4.031,6.167-7.819
			c0-2.36-1.017-5.412-2.59-7.776C53.019,54.01,51.032,52.6,49.206,52.6L49.206,52.6z"/>
		<path fill="#FFB856" stroke="#4C5051" stroke-width="2.5" d="M36.191,38.802c1.614-0.328,3.383-0.007,5.124,0.902
			c-0.599-1.202-0.917-2.536-0.917-3.919c0-1.437,0.341-3.023,0.953-4.551c-1.007-0.654-1.973-0.915-2.711-0.703
			c-0.929,0.266-1.791,1.39-2.307,3.006c-0.531,1.665-0.62,3.63-0.227,5.006C36.132,38.632,36.16,38.718,36.191,38.802z"/>
		<path fill="#FFB856" stroke="#4C5051" stroke-width="2.5" d="M68.388,60.786c-0.833-2.608-2.235-4.37-3.848-4.831
			c-1.42-0.405-3.268,0.149-5.101,1.497c0.999,2.295,1.558,4.715,1.558,6.796c0,3.266-1.336,6.226-3.487,8.363
			c0.615,0.399,1.29,0.708,2.007,0.913c1.911,0.546,3.921,0.316,5.659-0.649c1.737-0.966,2.995-2.55,3.542-4.46
			C69.323,66.302,69.192,63.308,68.388,60.786z"/>
		<path fill="#FFB856" stroke="#4C5051" stroke-width="2.5" d="M40.582,54.005c-0.885-1.517-1.361-3.253-1.361-5.032
			c0-1.665,0.43-3.587,1.202-5.433c-1.34-0.929-2.656-1.309-3.663-1.021c-1.207,0.346-2.27,1.703-2.915,3.726
			c-0.626,1.966-0.738,4.282-0.293,5.942C35.762,51.797,38.218,52.44,40.582,54.005L40.582,54.005z"/>
		<path fill="#FFB856" stroke="#4C5051" stroke-width="2.5" d="M38.972,57.452c-1.834-1.348-3.682-1.902-5.1-1.497
			c-1.614,0.461-3.017,2.223-3.85,4.831c-0.804,2.522-0.934,5.517-0.33,7.629c0.547,1.91,1.805,3.494,3.542,4.46
			c1.738,0.966,3.748,1.195,5.659,0.649c0.717-0.205,1.392-0.514,2.007-0.913c-2.151-2.138-3.487-5.098-3.487-8.363
			C37.414,62.167,37.972,59.747,38.972,57.452L38.972,57.452z"/>
	</g>
</svg>
