<svg xmlns="http://www.w3.org/2000/svg" width="100" height="100" viewBox="0 0 98.5601 98.5601">
	<g>
		<g>
			<circle fill="#FFFDE3" cx="49.28" cy="49.28" r="48"/>
			<path fill="#4D5152" d="M49.28,98.559C22.107,98.559,0,76.453,0,49.28S22.107,0,49.28,0c27.172,0,49.279,22.107,49.279,49.28
				S76.452,98.559,49.28,98.559z M49.28,2.56c-25.762,0-46.72,20.958-46.72,46.72s20.958,46.719,46.72,46.719
				S95.999,75.042,95.999,49.28S75.042,2.56,49.28,2.56z"/>
		</g>
	</g>
	<g>
		<path fill="#FFFFFF" d="M44.73,18.559c-1.887,0-3.414,1.53-3.414,3.414s1.527,3.414,3.414,3.414v11.376
			C34.49,39.04,27.663,48.83,27.663,58.384C27.663,70.32,37.34,80,49.28,80c11.939,0,21.615-9.68,21.615-21.616
			c0-9.554-6.826-19.344-17.066-21.62V25.387c1.887,0,3.414-1.53,3.414-3.414s-1.527-3.414-3.414-3.414H44.73"/>
		<path fill="#A1D9B1" d="M27.663,58.384C27.663,70.32,37.34,80,49.28,80c11.939,0,21.615-9.68,21.615-21.616"/>
		<g>
			<rect x="44.73" y="24.107" fill="#4D5152" width="9.099" height="2.56"/>
		</g>
		<g>
			<path fill="#4D5152" d="M49.28,81.28c-12.625,0-22.896-10.271-22.896-22.896c0-10.396,7.268-19.936,17.067-22.621V26.49
				c-1.968-0.559-3.415-2.372-3.415-4.517c0-2.588,2.106-4.693,4.694-4.693h9.099c2.588,0,4.695,2.105,4.695,4.693
				c0,2.145-1.447,3.958-3.414,4.517v9.272c9.797,2.686,17.066,12.225,17.066,22.621C72.176,71.009,61.905,81.28,49.28,81.28z
				 M44.73,19.84c-1.177,0-2.134,0.957-2.134,2.134s0.957,2.134,2.134,2.134c0.707,0,1.28,0.573,1.28,1.28v11.376
				c0,0.601-0.417,1.119-1.002,1.25c-9.158,2.035-16.064,10.792-16.064,20.37c0,11.214,9.123,20.336,20.337,20.336
				c11.213,0,20.336-9.122,20.336-20.336c0-9.578-6.906-18.335-16.064-20.37c-0.586-0.131-1.002-0.649-1.002-1.25V25.387
				c0-0.707,0.572-1.28,1.279-1.28c1.178,0,2.135-0.957,2.135-2.134s-0.957-2.134-2.135-2.134H44.73L44.73,19.84z"/>
		</g>
		<g>
			<path fill="#4D5152" d="M34.943,58.072c-0.707,0-1.28-0.573-1.28-1.28c0-7.733,6.291-14.024,14.023-14.024
				c0.707,0,1.28,0.572,1.28,1.279s-0.573,1.28-1.28,1.28c-6.321,0-11.464,5.144-11.464,11.465
				C36.223,57.499,35.65,58.072,34.943,58.072z"/>
		</g>
	</g>
	<g>
		<path fill="#FFFFFF" d="M43.824,70.537c-1.308,0-2.375-0.24-3.238-1.128l1.343-1.343c0.444,0.443,1.223,0.6,1.907,0.6
			c0.828,0,1.224-0.276,1.224-0.768c0-0.204-0.048-0.372-0.168-0.504c-0.108-0.108-0.288-0.192-0.564-0.228l-1.031-0.145
			c-0.755-0.107-1.332-0.359-1.715-0.755c-0.396-0.408-0.587-0.983-0.587-1.716c0-1.559,1.175-2.698,3.118-2.698
			c1.224,0,2.147,0.288,2.878,1.02l-1.319,1.319c-0.54-0.54-1.247-0.504-1.619-0.504c-0.731,0-1.031,0.42-1.031,0.792
			c0,0.107,0.036,0.264,0.168,0.396c0.108,0.107,0.288,0.216,0.587,0.252l1.032,0.144c0.768,0.108,1.319,0.348,1.679,0.708
			c0.456,0.443,0.635,1.079,0.635,1.871C47.122,69.589,45.623,70.537,43.824,70.537z"/>
		<path fill="#FFFFFF" d="M53.866,69.577c-0.623,0.624-1.344,0.96-2.387,0.96s-1.763-0.336-2.387-0.96
			c-0.899-0.899-0.863-2.099-0.863-3.382s-0.036-2.482,0.863-3.382c0.624-0.624,1.344-0.96,2.387-0.96s1.764,0.336,2.387,0.96
			c0.899,0.899,0.863,2.099,0.863,3.382S54.765,68.677,53.866,69.577z M52.319,64.096c-0.156-0.204-0.456-0.372-0.84-0.372
			s-0.684,0.168-0.84,0.372c-0.191,0.252-0.312,0.539-0.312,2.099c0,1.559,0.12,1.835,0.312,2.087
			c0.156,0.204,0.456,0.384,0.84,0.384s0.684-0.18,0.84-0.384c0.191-0.252,0.312-0.528,0.312-2.087
			C52.63,64.635,52.51,64.348,52.319,64.096z"/>
		<path fill="#FFFFFF" d="M55.639,70.465v-0.888l1.547-1.679c0.156-0.168,0.217-0.276,0.217-0.456c0-0.233-0.133-0.396-0.385-0.396
			c-0.18,0-0.396,0.084-0.396,0.414h-0.983c0-0.84,0.636-1.302,1.379-1.302c0.792,0,1.367,0.485,1.367,1.289
			c0,0.45-0.186,0.689-0.527,1.05l-1.02,1.079h1.547v0.888H55.639z"/>
	</g>
</svg>
