<svg xmlns="http://www.w3.org/2000/svg" width="100" height="100" viewBox="0 0 98.5601 98.5601">
	<g>
		<g>
			<circle fill="#FFFDE3" cx="49.28" cy="49.28" r="48"/>
			<path fill="#4D5152" d="M49.28,98.559C22.107,98.559,0,76.453,0,49.28S22.107,0,49.28,0c27.172,0,49.279,22.107,49.279,49.28
				S76.452,98.559,49.28,98.559z M49.28,2.56c-25.762,0-46.72,20.958-46.72,46.72s20.958,46.719,46.72,46.719
				S95.999,75.042,95.999,49.28S75.042,2.56,49.28,2.56z"/>
		</g>
	</g>
	<g>
		<g>
			<path fill="#FFB856" d="M44.1,51.711h-5.127v-4.183c0-1.364,1.105-2.47,2.47-2.47h0.188c1.364,0,2.47,1.105,2.47,2.47V51.711z"/>
			<path fill="#FFB856" d="M59.77,51.711h-5.127v-4.183c0-1.364,1.105-2.47,2.469-2.47h0.188c1.365,0,2.471,1.105,2.471,2.47V51.711z
				"/>
			<path fill="#FFB856" d="M22.897,33.234c0,0-6.884,14.761,8.893,22.687l3.859-2.42c0,0-10.885-6.292-6.456-16.94L22.897,33.234z"/>
			<path fill="#FFB856" d="M75.846,33.234c0,0,6.883,14.761-8.893,22.687l-3.859-2.42c0,0,10.885-6.292,6.455-16.94L75.846,33.234z"
				/>
		</g>
		<path fill="#A0D8B0" d="M33.628,54.768l-1.838,1.151c-15.777-7.925-8.895-22.688-8.895-22.688l3.271,1.729
			C24.986,38.846,23.403,48.427,33.628,54.768L33.628,54.768z"/>
		<path fill="#FFB856" d="M66.952,55.92l-1.838-1.151c10.227-6.342,8.643-15.922,7.463-19.807l3.27-1.729
			C75.846,33.232,82.729,47.995,66.952,55.92L66.952,55.92z"/>
		<path fill="#FFB856" d="M27.193,27.371l-4.337-6.754c-0.483-0.752-1.632-0.557-1.841,0.312l-2,8.343
			c-0.915,3.815,1.437,7.648,5.252,8.563l0.395,0.095L27.193,27.371z"/>
		<path fill="#FFB856" d="M27.193,27.371l6.927-4.054c0.771-0.451,1.708,0.243,1.499,1.112l-1.999,8.343
			c-0.915,3.815-4.748,6.167-8.563,5.252l-0.395-0.095L27.193,27.371z"/>
		<path fill="#FFB856" d="M35.621,24.429l-2,8.343c-0.915,3.814-4.747,6.167-8.564,5.252l-0.307-0.073
			c2.39-0.679,4.35-2.595,4.971-5.179l1.917-8l2.482-1.454C34.892,22.866,35.829,23.56,35.621,24.429L35.621,24.429z"/>
		<path fill="#A0D8B0" d="M24.671,37.897l-0.007,0.034l-0.396-0.096c-3.817-0.913-6.167-4.748-5.252-8.562l2-8.343
			c0.208-0.869,1.357-1.063,1.841-0.312l1.916,2.985l-1.856,7.75C22.334,33.779,23.073,36.212,24.671,37.897L24.671,37.897z"/>
		<path fill="#FFB856" d="M71.549,27.371l4.338-6.753c0.482-0.752,1.631-0.558,1.84,0.312l2,8.343
			c0.914,3.815-1.438,7.649-5.252,8.563l-0.395,0.095L71.549,27.371z"/>
		<path fill="#FFB856" d="M71.549,27.371l-6.928-4.054c-0.77-0.451-1.707,0.243-1.498,1.112l2,8.343
			c0.914,3.815,4.748,6.167,8.562,5.252l0.395-0.095L71.549,27.371z"/>
		<path fill="#A0D8B0" d="M73.993,37.951l-0.307,0.073c-3.816,0.915-7.648-1.438-8.564-5.252l-1.998-8.343
			c-0.209-0.869,0.727-1.563,1.5-1.11l2.482,1.454l1.916,8C69.643,35.357,71.604,37.273,73.993,37.951z"/>
		<path fill="#FFB856" d="M74.475,37.835l-0.396,0.096l-0.008-0.034c1.6-1.685,2.338-4.118,1.756-6.544l-1.857-7.75l1.918-2.985
			c0.482-0.751,1.631-0.556,1.84,0.312l2,8.343C80.641,33.087,78.292,36.922,74.475,37.835L74.475,37.835z"/>
		<path fill="#FFB856" d="M50.073,76.112H48.67c-10.207,0-18.482-8.274-18.482-18.481v-3.319c0-1.437,1.164-2.601,2.601-2.601h33.167
			c1.436,0,2.6,1.164,2.6,2.601v3.319C68.555,67.838,60.28,76.112,50.073,76.112L50.073,76.112z"/>
		<path fill="#FFB856" d="M68.553,54.31v3.32c0,10.208-8.271,18.48-18.479,18.48h-1.404c-0.419,0-0.834-0.013-1.248-0.044
			c9.626-0.64,17.233-8.647,17.233-18.437v-3.32c0-1.435-1.162-2.6-2.602-2.6h3.9C67.391,51.711,68.553,52.876,68.553,54.31z"/>
		<path fill="#A0D8B0" d="M51.321,76.067c-0.412,0.031-0.828,0.044-1.247,0.044h-1.404c-10.207,0-18.48-8.272-18.48-18.48v-3.32
			c0-1.435,1.162-2.6,2.6-2.6h3.9c-1.438,0-2.6,1.165-2.6,2.6v3.32C34.089,67.42,41.697,75.427,51.321,76.067z"/>
		<g>
			<path fill="#4C5051" d="M75.249,54.881h-4.518l0,0c7.943-5.585,8.141-13.177,7.336-17.725c2.205-1.847,3.436-4.939,2.67-8.125
				l-1.998-8.343c-0.422-1.759-2.754-2.151-3.727-0.632l-3.799,5.915l-6.064-3.552c-1.561-0.91-3.459,0.497-3.037,2.254l1.998,8.341
				c0.652,2.715,2.596,4.816,5.086,5.738c1.402,5.369-1.361,9.396-4.107,11.918h-4.277v-3.144c0-4.685-7.209-4.676-7.209,0v3.144
				h-8.461v-3.144c0-4.685-7.209-4.676-7.209,0v3.144h-4.277c-2.746-2.521-5.509-6.549-4.108-11.918
				c2.445-0.906,4.424-2.977,5.086-5.738l1.999-8.344c0.422-1.754-1.479-3.162-3.036-2.251l-6.066,3.551l-3.799-5.915
				c-0.971-1.517-3.304-1.129-3.726,0.632l-2,8.344c-0.756,3.153,0.439,6.255,2.67,8.125c-0.803,4.547-0.605,12.14,7.337,17.725h0
				h-4.519c-3.92,0-7.109,3.188-7.109,7.108c0,1.374,2.08,1.376,2.08,0c0-2.772,2.256-5.029,5.029-5.029h5.655
				c0,1.09-0.06,3.394,0.845,6.359h-4.095c-3.92,0-7.109,3.188-7.109,7.109c0,1.374,2.08,1.376,2.08,0
				c0-2.773,2.256-5.029,5.029-5.029h4.864c0,0,0,0,0,0.001c1.154,2.654,2.884,5.005,5.031,6.89h-0.876
				c-3.92,0-7.108,3.147-7.108,7.018c0,1.374,2.08,1.376,2.08,0c0-2.723,2.256-4.938,5.028-4.938h3.718
				c2.933,1.766,6.367,2.782,10.033,2.782h1.404c3.665,0,7.101-1.017,10.032-2.782h3.719c2.773,0,5.029,2.215,5.029,4.938
				c0,1.374,2.078,1.376,2.078,0c0-3.87-3.188-7.018-7.107-7.018h-0.877c2.148-1.885,3.877-4.235,5.031-6.89c0-0.001,0-0.001,0-0.001
				h4.865c2.773,0,5.029,2.256,5.029,5.029c0,1.374,2.08,1.376,2.08,0c0-3.921-3.189-7.109-7.109-7.109h-4.096
				c0.84-2.753,0.846-4.849,0.846-6.359h5.654c2.773,0,5.029,2.257,5.029,5.029c0,1.374,2.08,1.376,2.08,0
				C82.358,58.069,79.168,54.881,75.249,54.881L75.249,54.881z M76.731,21.231l1.984,8.284c0.725,3.03-0.949,6.091-3.875,7.129
				l-2.176-9.084L76.731,21.231z M66.133,32.531l-1.986-8.286l6.494,3.801c0.52,2.167,0.092,0.382,2.178,9.084
				C69.784,37.531,66.866,35.587,66.133,32.531L66.133,32.531z M71.432,39.244c1.586,0.107,3.557-0.369,4.719-0.884
				c0.621,4.625-0.309,10.45-6.715,14.89c-0.289-0.946-0.953-1.729-1.814-2.174C69.946,48.552,72.397,44.509,71.432,39.244z
				 M55.682,47.527c0-1.902,3.049-1.916,3.049,0v3.144h-3.049V47.527z M40.012,47.527c0-1.902,3.049-1.916,3.049,0v3.144h-3.049
				V47.527z M34.596,24.244l-1.986,8.286c-0.729,3.042-3.635,5.002-6.685,4.599c2.052-8.562,1.658-6.915,2.176-9.084L34.596,24.244z
				 M20.028,29.514l1.987-8.284l4.064,6.329l-2.177,9.084C20.825,35.552,19.338,32.398,20.028,29.514z M22.592,38.36
				c0.882,0.391,2.886,1.008,4.719,0.884c-0.964,5.265,1.487,9.308,3.812,11.832c-0.863,0.445-1.526,1.228-1.815,2.174
				C22.901,48.809,21.97,42.985,22.592,38.36L22.592,38.36z M50.074,75.072h-1.404c-9.617,0-17.44-7.824-17.44-17.441
				c0-0.865,0-1.422,0-3.32c0-0.86,0.699-1.56,1.56-1.56h33.165c0.861,0,1.561,0.699,1.561,1.56v3.32
				C67.514,67.248,59.69,75.072,50.074,75.072L50.074,75.072z"/>
			<path fill="#4C5051" d="M61.051,61.687c-0.172,0.563-0.367,1.104-0.58,1.611c-0.533,1.277,1.385,2.066,1.918,0.809
				c0.24-0.571,0.461-1.183,0.652-1.814C63.44,60.974,61.45,60.373,61.051,61.687z"/>
			<path fill="#4C5051" d="M58.637,66.356c-1.941,2.291-3.992,2.543-4.094,2.554c-1.311,0.126-1.209,2.074,0.098,2.074
				c0.34,0,3.127-0.39,5.582-3.281C61.114,66.651,59.528,65.311,58.637,66.356L58.637,66.356z"/>
		</g>
	</g>
</svg>
