<svg xmlns="http://www.w3.org/2000/svg" width="100" height="100" viewBox="0 0 98.5601 98.5601">
	<g>
		<g>
			<circle fill="#FFFDE3" cx="48" cy="49.093" r="47.999"/>
			<path fill="#4D5152" d="M49.28,98.559C22.107,98.559,0,76.453,0,49.28S22.107,0,49.28,0c27.172,0,49.279,22.107,49.279,49.28
				S76.452,98.559,49.28,98.559z M49.28,2.56c-25.762,0-46.72,20.958-46.72,46.72s20.958,46.719,46.72,46.719
				S95.999,75.042,95.999,49.28S75.042,2.56,49.28,2.56z"/>
		</g>
	</g>
	<g>
		<polygon fill="#A0D8B0" stroke="#4D5152" stroke-width="2.532" stroke-miterlimit="10" points="59.922,38.626 59.922,21.846
			43.729,38.04 43.729,54.819 	"/>
		<path fill="#A0D8B0" stroke="#4D5152" stroke-width="2.532" stroke-miterlimit="10" d="M43.729,38.04L22.315,59.453
			c-4.625,4.626-4.625,12.153,0,16.779l21.413-21.413V38.04z"/>
		<path fill="#A0D8B0" stroke="#4D5152" stroke-width="2.532" stroke-miterlimit="10" d="M46.126,52.423l-23.811,23.81
			c4.627,4.626,12.153,4.626,16.78,0l23.809-23.81H46.126z"/>
		<polygon fill="#A0D8B0" stroke="#4D5152" stroke-width="2.532" stroke-miterlimit="10" points="76.702,38.626 59.922,38.626
			46.126,52.423 62.905,52.423 	"/>
		<path fill="#FFB856" stroke="#4D5152" stroke-width="2.532" stroke-miterlimit="10" d="M43.729,30.848
			c-4.634,4.634-4.634,12.146,0,16.78C48.362,42.995,48.362,35.482,43.729,30.848z"/>
		<path fill="#A0D8B0" stroke="#4D5152" stroke-width="2.532" stroke-miterlimit="10" d="M53.317,52.423
			c4.633,4.634,12.146,4.634,16.779,0C65.463,47.789,57.95,47.789,53.317,52.423z"/>
		<path fill="#A0D8B0" stroke="#4D5152" stroke-width="2.532" stroke-miterlimit="10" d="M22.315,76.232
			c1.982,1.982,5.747,1.445,8.39-1.198l34.323-34.323l-7.299-7.083L22.315,76.232"/>
		<path fill="#A0D8B0" stroke="#4D5152" stroke-width="2.532" stroke-miterlimit="10" d="M22.315,76.232
			c-1.982-1.982-1.444-5.746,1.199-8.39L57.836,33.52l3.596,3.595L22.315,76.232"/>
		<path fill="#A0D8B0" stroke="#4D5152" stroke-width="2.532" stroke-miterlimit="10" d="M61.176,35.44
			c0.076,0,0.152-0.002,0.229-0.003l13.854-13.853C67.481,21.585,61.176,27.788,61.176,35.44z"/>
		<path fill="#A0D8B0" stroke="#4D5152" stroke-width="2.532" stroke-miterlimit="10" d="M76.986,23.376L63.134,37.229
			c-0.002,0.076-0.004,0.152-0.004,0.229C70.783,37.458,76.986,31.153,76.986,23.376z"/>
		<path fill="#A0D8B0" stroke="#4D5152" stroke-width="2.532" stroke-miterlimit="10" d="M61.202,20.567
			c-4.633,4.633-4.633,12.146,0,16.78C65.836,32.713,65.836,25.2,61.202,20.567z"/>
		<path fill="#FFB856" stroke="#4D5152" stroke-width="2.532" stroke-miterlimit="10" d="M61.294,37.378
			c4.635,4.633,12.146,4.633,16.779,0C73.441,32.744,65.929,32.744,61.294,37.378z"/>
	</g>
</svg>