
<svg style="position: absolute; width: 0; height: 0; overflow: hidden;" version="1.1" xmlns="http://www.w3.org/2000/svg" xmlns:xlink="http://www.w3.org/1999/xlink">
<defs>

<!-- // App order RBK -->
<symbol id="icon-add-circle-outline" viewBox="0 0 24 24">
	<path d="M0 0h24v24H0z" fill="none"/><path d="M13 7h-2v4H7v2h4v4h2v-4h4v-2h-4V7zm-1-5C6.48 2 2 6.48 2 12s4.48 10 10 10 10-4.48 10-10S17.52 2 12 2zm0 18c-4.41 0-8-3.59-8-8s3.59-8 8-8 8 3.59 8 8-3.59 8-8 8z"/>
</symbol>
<symbol id="icon-remove-circle-outline" viewBox="0 0 24 24">
	<path d="M0 0h24v24H0z" fill="none"/><path d="M7 11v2h10v-2H7zm5-9C6.48 2 2 6.48 2 12s4.48 10 10 10 10-4.48 10-10S17.52 2 12 2zm0 18c-4.41 0-8-3.59-8-8s3.59-8 8-8 8 3.59 8 8-3.59 8-8 8z"/>
</symbol>
<symbol id="icon-cancel-outline" viewBox="0 0 24 24">
	<path opacity=".87" fill="none" d="M0 0h24v24H0V0z"/>
	<path d="M12 2C6.47 2 2 6.47 2 12s4.47 10 10 10 10-4.47 10-10S17.53 2 12 2zm0 18c-4.41 0-8-3.59-8-8s3.59-8 8-8 8 3.59 8 8-3.59 8-8 8zm3.59-13L12 10.59 8.41 7 7 8.41 10.59 12 7 15.59 8.41 17 12 13.41 15.59 17 17 15.59 13.41 12 17 8.41z"/>
</symbol>
<symbol id="icon-local-offer" viewBox="0 0 24 24">
	<path d="M0 0h24v24H0z" fill="none"/>
	<path d="M21.41 11.58l-9-9C12.05 2.22 11.55 2 11 2H4c-1.1 0-2 .9-2 2v7c0 .55.22 1.05.59 1.42l9 9c.36.36.86.58 1.41.58.55 0 1.05-.22 1.41-.59l7-7c.37-.36.59-.86.59-1.41 0-.55-.23-1.06-.59-1.42zM5.5 7C4.67 7 4 6.33 4 5.5S4.67 4 5.5 4 7 4.67 7 5.5 6.33 7 5.5 7z"/>
</symbol>
<symbol id="icon-local-offer-outline" viewBox="0 0 24 24">
	<path fill="none" d="M0 0h24v24H0V0z"/>
	<path d="M21.41 11.58l-9-9C12.05 2.22 11.55 2 11 2H4c-1.1 0-2 .9-2 2v7c0 .55.22 1.05.59 1.42l9 9c.36.36.86.58 1.41.58s1.05-.22 1.41-.59l7-7c.37-.36.59-.86.59-1.41s-.23-1.06-.59-1.42zM13 20.01L4 11V4h7v-.01l9 9-7 7.02z"/>
	<circle cx="6.5" cy="6.5" r="1.5"/>
</symbol>
<symbol id="icon-shoping-cart-outline" viewBox="0 0 24 24">
	<path fill="none" d="M0 0h24v24H0V0z"/>
	<path d="M15.55 13c.75 0 1.41-.41 1.75-1.03l3.58-6.49c.37-.66-.11-1.48-.87-1.48H5.21l-.94-2H1v2h2l3.6 7.59-1.35 2.44C4.52 15.37 5.48 17 7 17h12v-2H7l1.1-2h7.45zM6.16 6h12.15l-2.76 5H8.53L6.16 6zM7 18c-1.1 0-1.99.9-1.99 2S5.9 22 7 22s2-.9 2-2-.9-2-2-2zm10 0c-1.1 0-1.99.9-1.99 2s.89 2 1.99 2 2-.9 2-2-.9-2-2-2z"/>
</symbol>
<symbol id="icon-info-outline" viewBox="0 0 24 24">
	<path d="M0 0h24v24H0V0z" fill="none"/>
	<path d="M11 7h2v2h-2zm0 4h2v6h-2zm1-9C6.48 2 2 6.48 2 12s4.48 10 10 10 10-4.48 10-10S17.52 2 12 2zm0 18c-4.41 0-8-3.59-8-8s3.59-8 8-8 8 3.59 8 8-3.59 8-8 8z"/>
</symbol>
<symbol id="icon-info" viewBox="0 0 24 24">
	<path d="M0 0h24v24H0z" fill="none"/><path d="M12 2C6.48 2 2 6.48 2 12s4.48 10 10 10 10-4.48 10-10S17.52 2 12 2zm1 15h-2v-6h2v6zm0-8h-2V7h2v2z"/>
</symbol>
<symbol id="icon-chevron-right" viewBox="0 0 24 24">
	<path d="M0 0h24v24H0V0z" fill="none"/><path d="M10 6L8.59 7.41 13.17 12l-4.58 4.59L10 18l6-6-6-6z"/>
</symbol>

<!-- // Allergen RBK -->
<symbol id="icon-allergen-celery" viewBox="0 0 98.5601 98.5601">
	<g>
		<g>
			<circle fill="#FFFDE3" cx="48" cy="49.093" r="47.999"/>
			<path fill="#4D5152" d="M49.28,98.559C22.107,98.559,0,76.453,0,49.28S22.107,0,49.28,0c27.172,0,49.279,22.107,49.279,49.28
				S76.452,98.559,49.28,98.559z M49.28,2.56c-25.762,0-46.72,20.958-46.72,46.72s20.958,46.719,46.72,46.719
				S95.999,75.042,95.999,49.28S75.042,2.56,49.28,2.56z"/>
		</g>
	</g>
	<g>
		<polygon fill="#A0D8B0" stroke="#4D5152" stroke-width="2.532" stroke-miterlimit="10" points="59.922,38.626 59.922,21.846
			43.729,38.04 43.729,54.819 	"/>
		<path fill="#A0D8B0" stroke="#4D5152" stroke-width="2.532" stroke-miterlimit="10" d="M43.729,38.04L22.315,59.453
			c-4.625,4.626-4.625,12.153,0,16.779l21.413-21.413V38.04z"/>
		<path fill="#A0D8B0" stroke="#4D5152" stroke-width="2.532" stroke-miterlimit="10" d="M46.126,52.423l-23.811,23.81
			c4.627,4.626,12.153,4.626,16.78,0l23.809-23.81H46.126z"/>
		<polygon fill="#A0D8B0" stroke="#4D5152" stroke-width="2.532" stroke-miterlimit="10" points="76.702,38.626 59.922,38.626
			46.126,52.423 62.905,52.423 	"/>
		<path fill="#FFB856" stroke="#4D5152" stroke-width="2.532" stroke-miterlimit="10" d="M43.729,30.848
			c-4.634,4.634-4.634,12.146,0,16.78C48.362,42.995,48.362,35.482,43.729,30.848z"/>
		<path fill="#A0D8B0" stroke="#4D5152" stroke-width="2.532" stroke-miterlimit="10" d="M53.317,52.423
			c4.633,4.634,12.146,4.634,16.779,0C65.463,47.789,57.95,47.789,53.317,52.423z"/>
		<path fill="#A0D8B0" stroke="#4D5152" stroke-width="2.532" stroke-miterlimit="10" d="M22.315,76.232
			c1.982,1.982,5.747,1.445,8.39-1.198l34.323-34.323l-7.299-7.083L22.315,76.232"/>
		<path fill="#A0D8B0" stroke="#4D5152" stroke-width="2.532" stroke-miterlimit="10" d="M22.315,76.232
			c-1.982-1.982-1.444-5.746,1.199-8.39L57.836,33.52l3.596,3.595L22.315,76.232"/>
		<path fill="#A0D8B0" stroke="#4D5152" stroke-width="2.532" stroke-miterlimit="10" d="M61.176,35.44
			c0.076,0,0.152-0.002,0.229-0.003l13.854-13.853C67.481,21.585,61.176,27.788,61.176,35.44z"/>
		<path fill="#A0D8B0" stroke="#4D5152" stroke-width="2.532" stroke-miterlimit="10" d="M76.986,23.376L63.134,37.229
			c-0.002,0.076-0.004,0.152-0.004,0.229C70.783,37.458,76.986,31.153,76.986,23.376z"/>
		<path fill="#A0D8B0" stroke="#4D5152" stroke-width="2.532" stroke-miterlimit="10" d="M61.202,20.567
			c-4.633,4.633-4.633,12.146,0,16.78C65.836,32.713,65.836,25.2,61.202,20.567z"/>
		<path fill="#FFB856" stroke="#4D5152" stroke-width="2.532" stroke-miterlimit="10" d="M61.294,37.378
			c4.635,4.633,12.146,4.633,16.779,0C73.441,32.744,65.929,32.744,61.294,37.378z"/>
	</g>
</symbol>


<symbol id="icon-allergen-crustacean" viewBox="0 0 98.5601 98.5601">
	<g>
		<g>
			<circle fill="#FFFDE3" cx="49.28" cy="49.28" r="48"/>
			<path fill="#4D5152" d="M49.28,98.559C22.107,98.559,0,76.453,0,49.28S22.107,0,49.28,0c27.172,0,49.279,22.107,49.279,49.28
				S76.452,98.559,49.28,98.559z M49.28,2.56c-25.762,0-46.72,20.958-46.72,46.72s20.958,46.719,46.72,46.719
				S95.999,75.042,95.999,49.28S75.042,2.56,49.28,2.56z"/>
		</g>
	</g>
	<g>
		<g>
			<path fill="#FFB856" d="M44.1,51.711h-5.127v-4.183c0-1.364,1.105-2.47,2.47-2.47h0.188c1.364,0,2.47,1.105,2.47,2.47V51.711z"/>
			<path fill="#FFB856" d="M59.77,51.711h-5.127v-4.183c0-1.364,1.105-2.47,2.469-2.47h0.188c1.365,0,2.471,1.105,2.471,2.47V51.711z
				"/>
			<path fill="#FFB856" d="M22.897,33.234c0,0-6.884,14.761,8.893,22.687l3.859-2.42c0,0-10.885-6.292-6.456-16.94L22.897,33.234z"/>
			<path fill="#FFB856" d="M75.846,33.234c0,0,6.883,14.761-8.893,22.687l-3.859-2.42c0,0,10.885-6.292,6.455-16.94L75.846,33.234z"
				/>
		</g>
		<path fill="#A0D8B0" d="M33.628,54.768l-1.838,1.151c-15.777-7.925-8.895-22.688-8.895-22.688l3.271,1.729
			C24.986,38.846,23.403,48.427,33.628,54.768L33.628,54.768z"/>
		<path fill="#FFB856" d="M66.952,55.92l-1.838-1.151c10.227-6.342,8.643-15.922,7.463-19.807l3.27-1.729
			C75.846,33.232,82.729,47.995,66.952,55.92L66.952,55.92z"/>
		<path fill="#FFB856" d="M27.193,27.371l-4.337-6.754c-0.483-0.752-1.632-0.557-1.841,0.312l-2,8.343
			c-0.915,3.815,1.437,7.648,5.252,8.563l0.395,0.095L27.193,27.371z"/>
		<path fill="#FFB856" d="M27.193,27.371l6.927-4.054c0.771-0.451,1.708,0.243,1.499,1.112l-1.999,8.343
			c-0.915,3.815-4.748,6.167-8.563,5.252l-0.395-0.095L27.193,27.371z"/>
		<path fill="#FFB856" d="M35.621,24.429l-2,8.343c-0.915,3.814-4.747,6.167-8.564,5.252l-0.307-0.073
			c2.39-0.679,4.35-2.595,4.971-5.179l1.917-8l2.482-1.454C34.892,22.866,35.829,23.56,35.621,24.429L35.621,24.429z"/>
		<path fill="#A0D8B0" d="M24.671,37.897l-0.007,0.034l-0.396-0.096c-3.817-0.913-6.167-4.748-5.252-8.562l2-8.343
			c0.208-0.869,1.357-1.063,1.841-0.312l1.916,2.985l-1.856,7.75C22.334,33.779,23.073,36.212,24.671,37.897L24.671,37.897z"/>
		<path fill="#FFB856" d="M71.549,27.371l4.338-6.753c0.482-0.752,1.631-0.558,1.84,0.312l2,8.343
			c0.914,3.815-1.438,7.649-5.252,8.563l-0.395,0.095L71.549,27.371z"/>
		<path fill="#FFB856" d="M71.549,27.371l-6.928-4.054c-0.77-0.451-1.707,0.243-1.498,1.112l2,8.343
			c0.914,3.815,4.748,6.167,8.562,5.252l0.395-0.095L71.549,27.371z"/>
		<path fill="#A0D8B0" d="M73.993,37.951l-0.307,0.073c-3.816,0.915-7.648-1.438-8.564-5.252l-1.998-8.343
			c-0.209-0.869,0.727-1.563,1.5-1.11l2.482,1.454l1.916,8C69.643,35.357,71.604,37.273,73.993,37.951z"/>
		<path fill="#FFB856" d="M74.475,37.835l-0.396,0.096l-0.008-0.034c1.6-1.685,2.338-4.118,1.756-6.544l-1.857-7.75l1.918-2.985
			c0.482-0.751,1.631-0.556,1.84,0.312l2,8.343C80.641,33.087,78.292,36.922,74.475,37.835L74.475,37.835z"/>
		<path fill="#FFB856" d="M50.073,76.112H48.67c-10.207,0-18.482-8.274-18.482-18.481v-3.319c0-1.437,1.164-2.601,2.601-2.601h33.167
			c1.436,0,2.6,1.164,2.6,2.601v3.319C68.555,67.838,60.28,76.112,50.073,76.112L50.073,76.112z"/>
		<path fill="#FFB856" d="M68.553,54.31v3.32c0,10.208-8.271,18.48-18.479,18.48h-1.404c-0.419,0-0.834-0.013-1.248-0.044
			c9.626-0.64,17.233-8.647,17.233-18.437v-3.32c0-1.435-1.162-2.6-2.602-2.6h3.9C67.391,51.711,68.553,52.876,68.553,54.31z"/>
		<path fill="#A0D8B0" d="M51.321,76.067c-0.412,0.031-0.828,0.044-1.247,0.044h-1.404c-10.207,0-18.48-8.272-18.48-18.48v-3.32
			c0-1.435,1.162-2.6,2.6-2.6h3.9c-1.438,0-2.6,1.165-2.6,2.6v3.32C34.089,67.42,41.697,75.427,51.321,76.067z"/>
		<g>
			<path fill="#4C5051" d="M75.249,54.881h-4.518l0,0c7.943-5.585,8.141-13.177,7.336-17.725c2.205-1.847,3.436-4.939,2.67-8.125
				l-1.998-8.343c-0.422-1.759-2.754-2.151-3.727-0.632l-3.799,5.915l-6.064-3.552c-1.561-0.91-3.459,0.497-3.037,2.254l1.998,8.341
				c0.652,2.715,2.596,4.816,5.086,5.738c1.402,5.369-1.361,9.396-4.107,11.918h-4.277v-3.144c0-4.685-7.209-4.676-7.209,0v3.144
				h-8.461v-3.144c0-4.685-7.209-4.676-7.209,0v3.144h-4.277c-2.746-2.521-5.509-6.549-4.108-11.918
				c2.445-0.906,4.424-2.977,5.086-5.738l1.999-8.344c0.422-1.754-1.479-3.162-3.036-2.251l-6.066,3.551l-3.799-5.915
				c-0.971-1.517-3.304-1.129-3.726,0.632l-2,8.344c-0.756,3.153,0.439,6.255,2.67,8.125c-0.803,4.547-0.605,12.14,7.337,17.725h0
				h-4.519c-3.92,0-7.109,3.188-7.109,7.108c0,1.374,2.08,1.376,2.08,0c0-2.772,2.256-5.029,5.029-5.029h5.655
				c0,1.09-0.06,3.394,0.845,6.359h-4.095c-3.92,0-7.109,3.188-7.109,7.109c0,1.374,2.08,1.376,2.08,0
				c0-2.773,2.256-5.029,5.029-5.029h4.864c0,0,0,0,0,0.001c1.154,2.654,2.884,5.005,5.031,6.89h-0.876
				c-3.92,0-7.108,3.147-7.108,7.018c0,1.374,2.08,1.376,2.08,0c0-2.723,2.256-4.938,5.028-4.938h3.718
				c2.933,1.766,6.367,2.782,10.033,2.782h1.404c3.665,0,7.101-1.017,10.032-2.782h3.719c2.773,0,5.029,2.215,5.029,4.938
				c0,1.374,2.078,1.376,2.078,0c0-3.87-3.188-7.018-7.107-7.018h-0.877c2.148-1.885,3.877-4.235,5.031-6.89c0-0.001,0-0.001,0-0.001
				h4.865c2.773,0,5.029,2.256,5.029,5.029c0,1.374,2.08,1.376,2.08,0c0-3.921-3.189-7.109-7.109-7.109h-4.096
				c0.84-2.753,0.846-4.849,0.846-6.359h5.654c2.773,0,5.029,2.257,5.029,5.029c0,1.374,2.08,1.376,2.08,0
				C82.358,58.069,79.168,54.881,75.249,54.881L75.249,54.881z M76.731,21.231l1.984,8.284c0.725,3.03-0.949,6.091-3.875,7.129
				l-2.176-9.084L76.731,21.231z M66.133,32.531l-1.986-8.286l6.494,3.801c0.52,2.167,0.092,0.382,2.178,9.084
				C69.784,37.531,66.866,35.587,66.133,32.531L66.133,32.531z M71.432,39.244c1.586,0.107,3.557-0.369,4.719-0.884
				c0.621,4.625-0.309,10.45-6.715,14.89c-0.289-0.946-0.953-1.729-1.814-2.174C69.946,48.552,72.397,44.509,71.432,39.244z
				 M55.682,47.527c0-1.902,3.049-1.916,3.049,0v3.144h-3.049V47.527z M40.012,47.527c0-1.902,3.049-1.916,3.049,0v3.144h-3.049
				V47.527z M34.596,24.244l-1.986,8.286c-0.729,3.042-3.635,5.002-6.685,4.599c2.052-8.562,1.658-6.915,2.176-9.084L34.596,24.244z
				 M20.028,29.514l1.987-8.284l4.064,6.329l-2.177,9.084C20.825,35.552,19.338,32.398,20.028,29.514z M22.592,38.36
				c0.882,0.391,2.886,1.008,4.719,0.884c-0.964,5.265,1.487,9.308,3.812,11.832c-0.863,0.445-1.526,1.228-1.815,2.174
				C22.901,48.809,21.97,42.985,22.592,38.36L22.592,38.36z M50.074,75.072h-1.404c-9.617,0-17.44-7.824-17.44-17.441
				c0-0.865,0-1.422,0-3.32c0-0.86,0.699-1.56,1.56-1.56h33.165c0.861,0,1.561,0.699,1.561,1.56v3.32
				C67.514,67.248,59.69,75.072,50.074,75.072L50.074,75.072z"/>
			<path fill="#4C5051" d="M61.051,61.687c-0.172,0.563-0.367,1.104-0.58,1.611c-0.533,1.277,1.385,2.066,1.918,0.809
				c0.24-0.571,0.461-1.183,0.652-1.814C63.44,60.974,61.45,60.373,61.051,61.687z"/>
			<path fill="#4C5051" d="M58.637,66.356c-1.941,2.291-3.992,2.543-4.094,2.554c-1.311,0.126-1.209,2.074,0.098,2.074
				c0.34,0,3.127-0.39,5.582-3.281C61.114,66.651,59.528,65.311,58.637,66.356L58.637,66.356z"/>
		</g>
	</g>
</symbol>

<symbol id="icon-allergen-egg" viewBox="0 0 98.5601 98.5601">
	<g>
		<g>
			<circle fill="#FFFDE3" cx="49.2798" cy="49.2798" r="48"/>
			<path fill="#4D5152" d="M49.2798,98.5601C22.1069,98.5601,0,76.4526,0,49.2798S22.1069,0,49.2798,0
				s49.2803,22.1069,49.2803,49.2798S76.4526,98.5601,49.2798,98.5601z M49.2798,2.5596c-25.7617,0-46.7202,20.9585-46.7202,46.7202
				s20.9585,46.7197,46.7202,46.7197s46.7197-20.958,46.7197-46.7197S75.0415,2.5596,49.2798,2.5596z"/>
		</g>
	</g>
	<g>
		<g>
			<path fill-rule="evenodd" clip-rule="evenodd" fill="#FFFFFF" d="M25.3198,47.2749C27.6123,32.9204,38,18.5596,49.2783,18.5596
				c11.2818,0,21.6704,14.3608,23.9615,28.7153c2.8339,17.749-7.3662,32.7246-23.9615,32.7246
				C32.6846,79.9995,22.4849,65.0239,25.3198,47.2749z"/>
			<path fill="#4D5152" d="M49.2783,81.2798c-7.5396,0-14.2773-3.0312-18.9722-8.5361c-5.5405-6.4951-7.8184-15.8525-6.2505-25.6704
				c2.2979-14.3882,12.9814-29.7935,25.2227-29.7935c12.2446,0,22.9292,15.4053,25.2251,29.7935
				c1.5684,9.8179-0.7109,19.1753-6.251,25.6704C63.5571,78.2485,56.8188,81.2798,49.2783,81.2798z M49.2783,19.8394
				c-8.8281,0-20.0542,11.1055-22.6943,27.6372c-1.4502,9.0776,0.6167,17.6812,5.6699,23.606
				c4.2617,4.9961,10.1484,7.6367,17.0244,7.6367c6.8765,0,12.7642-2.6406,17.0259-7.6367
				c5.0537-5.9248,7.1211-14.5283,5.6719-23.606C69.3374,30.9448,58.1099,19.8394,49.2783,19.8394z"/>
		</g>
		<g>
			<g>
				<g>
					<path fill="#FFB957" d="M48.8985,38.0562c-8.8374,0-16,7.1596-16,15.999c0,8.8398,7.1626,16.0019,16,16.0019
						c8.8364,0,16.0004-7.1621,16.0004-16.0019C64.8989,45.2158,57.7349,38.0562,48.8985,38.0562z"/>
					<path fill="#4D5152" d="M48.8984,71.3374c-9.5283,0-17.2798-7.7529-17.2798-17.2822c0-9.5278,7.7515-17.2788,17.2798-17.2788
						c9.5288,0,17.2808,7.751,17.2808,17.2788C66.1792,63.5845,58.4272,71.3374,48.8984,71.3374z M48.8984,39.3359
						c-8.1167,0-14.7202,6.603-14.7202,14.7192c0,8.1182,6.6035,14.7217,14.7202,14.7217s14.7202-6.6035,14.7202-14.7217
						C63.6187,45.939,57.0151,39.3359,48.8984,39.3359z"/>
				</g>
			</g>
			<g>
				<path fill="#FFB957" d="M41.4873,57.811c-3.1914-7.0498,3.7373-13.9785,8.146-10.8286"/>
				<path fill="#4D5152" d="M41.4883,59.0913c-0.4873,0-0.9531-0.2793-1.167-0.752c-2.1821-4.8213-0.1968-9.4644,2.5713-11.7388
					c2.4121-1.9819,5.2793-2.2344,7.4849-0.6597c0.5752,0.4111,0.708,1.2104,0.2969,1.7856
					c-0.4097,0.5742-1.2104,0.708-1.7852,0.2974c-1.834-1.3101-3.8096,0.0933-4.3716,0.5547
					c-2.0376,1.6743-3.4902,5.1123-1.8643,8.7041c0.2915,0.6445,0.0059,1.4033-0.6382,1.6943
					C41.8438,59.0542,41.6646,59.0913,41.4883,59.0913z"/>
			</g>
		</g>
	</g>
</symbol>

<symbol id="icon-allergen-fish" viewBox="0 0 98.5601 98.5601">
	<g>
		<g>
			<g>
				<circle fill="#FFFDE3" cx="49.2798" cy="49.2798" r="48"/>
				<path fill="#4D5152" d="M49.2798,98.5601C22.1069,98.5601,0,76.4526,0,49.2798S22.1069,0,49.2798,0
					s49.2803,22.1069,49.2803,49.2798S76.4526,98.5601,49.2798,98.5601z M49.2798,2.5596c-25.7617,0-46.7202,20.9585-46.7202,46.7202
					s20.9585,46.7197,46.7202,46.7197s46.7197-20.958,46.7197-46.7197S75.0415,2.5596,49.2798,2.5596z"/>
			</g>
		</g>
	</g>
	<g>
		<g>
			<path fill="#FFFFFF" d="M33.771,36.1211c-8.2788,2.7598-13.9311,9.4136-13.9311,13.1587c0,3.7441,5.6528,10.3984,13.9331,13.1592
				c2.2651-3.6026,3.54-8.294,3.54-13.1592C37.313,44.3462,36.063,39.7398,33.771,36.1211z"/>
			<path fill="#FFB957" d="M39.2329,49.9199v-0.6401c0-4.9995-1.1919-9.6802-3.4472-13.5361l-0.4454-0.7613l0.8614-0.1875
				c1.728-0.3769,3.4726-0.5678,5.1845-0.5678c9.9756,0,18.7784,4.5991,21.4053,11.1836c0.3672,0.9204,1.2442,1.5468,2.2344,1.5952
				l0.1172,0.0024c0.957,0,1.8252-0.5259,2.2656-1.3735c1.29-2.4937,2.6426-4.4839,3.9121-5.7539
				c2.3477-2.3452,4.7901-3.1773,6.168-3.1773c0.3681,0,1.0439,0.0586,1.4375,0.4527c0.9726,0.9712,0.3926,4.4873-2.6934,7.5737
				l-0.0478,0.0435c-0.7305,0.5957-5.4942,2.7163-8.3252,3.9125c-0.2373,0.1006-0.3906,0.3326-0.3897,0.5918l0.001,0.6421H39.2329z"
				/>
			<g>
				<path fill="#A1D9B1" d="M41.3862,63.6919c9.7188,0,18.2735-4.4385,20.8028-10.793c0.458-1.1552,1.5556-1.9404,2.7978-2
					c0.0508-0.0029,0.1045-0.0039,0.1582-0.0039c1.1944,0,2.2764,0.6582,2.8233,1.7198c1.289,2.4892,2.5713,4.3759,3.8076,5.6103
					c2.207,2.208,4.458,2.9912,5.7148,2.9912c0.4502,0,0.8184-0.0986,0.9844-0.2656c0.5752-0.5762,0.333-3.6397-2.7285-6.6982
					c-0.6006-0.584-4.6777-2.42-8.1113-3.7881c-0.4825-0.1909-0.8008-0.6558-0.8067-1.1748c0-0.0035,0.001-0.0074,0.001-0.0098
					H39.8731c0,5.0479-1.2715,9.9502-3.5391,13.8584C37.9468,63.4898,39.6353,63.6919,41.3862,63.6919z"/>
			</g>
		</g>
		<g>
			<path fill="#4D5152" d="M41.3862,66.2524c-13.3071,0-24.1064-10.2705-24.1064-16.9727c0-3.3574,2.7544-7.5781,7.189-11.0156
				c2.8701-2.2246,8.8843-5.9565,16.9175-5.9565c10.7422,0,20.2783,5.0952,23.1875,12.3916
				c0.0898,0.2246,0.3047,0.3779,0.5469,0.3896c0,0,0.001,0,0.002,0c0.2617,0,0.4727-0.1299,0.5811-0.3384
				c1.3789-2.666,2.8525-4.8203,4.2598-6.2271c2.3447-2.3423,5.1572-3.7402,7.5264-3.7402c1.1641,0,2.1299,0.3511,2.7949,1.0151
				c1.0225,1.0225,1.2705,2.7803,0.6787,4.8228c-0.5498,1.9004-1.7588,3.8521-3.4043,5.4951
				c-0.6064,0.6079-3.4824,1.9575-6.1553,3.1338c2.3994,1.0249,5.3486,2.3843,6.1543,3.1919
				c3.5352,3.5332,4.7842,8.2598,2.7266,10.3184c-0.6641,0.665-1.6309,1.0156-2.7939,1.0156c-2.3701,0-5.1836-1.3975-7.5244-3.7393
				c-1.4209-1.417-2.8594-3.5195-4.2734-6.2471c-0.1064-0.207-0.3164-0.335-0.5488-0.335c-0.2754,0.0127-0.4873,0.1641-0.5752,0.3877
				C61.6597,61.1499,52.1274,66.2524,41.3862,66.2524z M41.3862,34.8672c-12.2314,0-21.5469,9.606-21.5469,14.4126
				s9.3154,14.4121,21.5469,14.4121c9.7188,0,18.2725-4.4385,20.8027-10.7949c0.457-1.1543,1.5566-1.9395,2.7988-1.998
				c0.0205-0.001,0.1357-0.0039,0.1562-0.0039c1.1943,0,2.2764,0.6582,2.8232,1.7188c1.291,2.4902,2.5723,4.3789,3.8076,5.6113
				c2.998,2.998,6.0664,3.3545,6.7002,2.7256c0.5752-0.5762,0.334-3.6387-2.7285-6.6992c-0.6006-0.584-4.6777-2.4199-8.1113-3.7861
				c-0.4824-0.1924-0.8008-0.6567-0.8066-1.1758c-0.0049-0.5195,0.3037-0.9907,0.7822-1.1929
				c3.4795-1.4707,7.5928-3.3486,8.1689-3.8188c1.3145-1.3154,2.293-2.8765,2.7246-4.3687c0.3506-1.2095,0.2305-2.0405-0.0303-2.3003
				c-0.6299-0.6323-3.6992-0.2739-6.7012,2.7251c-1.2227,1.2231-2.5361,3.1577-3.7969,5.5947
				c-0.5518,1.062-1.6338,1.7207-2.8252,1.7207c-0.0205,0-0.1348-0.0029-0.1553-0.0039c-1.2393-0.0601-2.3379-0.8442-2.7988-1.9971
				C59.6646,39.3003,51.1069,34.8672,41.3862,34.8672z"/>
		</g>
		<g>
			<path fill="#4D5152" d="M34.7681,65.479l-2.0225-1.5703c2.9023-3.7393,4.5674-9.0713,4.5674-14.6289
				c0-5.5566-1.5825-10.6992-4.4556-14.4805l2.0381-1.5488c3.2095,4.2241,4.9771,9.9165,4.9771,16.0293
				C39.8726,55.395,38.0122,61.2993,34.7681,65.479z"/>
		</g>
		<g>
			<path fill="#4D5152" d="M30.8262,45.8662c-1.2354,0-2.2397-1.0049-2.2397-2.2402s1.0044-2.2397,2.2397-2.2397
				s2.2397,1.0044,2.2397,2.2397S32.0615,45.8662,30.8262,45.8662z M30.8262,43.3066c-0.1763,0-0.3198,0.1431-0.3198,0.3193
				s0.1436,0.3198,0.3198,0.3198s0.3198-0.1436,0.3198-0.3198S31.0024,43.3066,30.8262,43.3066z"/>
		</g>
		<g>
			<g>
				<path fill="#FFB957" d="M46.2803,38.6211c0,0,2.5762,3.3613,0,8.73"/>
				<path fill="#4D5152" d="M46.2793,48.6313c-0.1855,0-0.374-0.0405-0.5527-0.1265c-0.6372-0.3057-0.9062-1.0703-0.6001-1.7075
					c2.1743-4.5312,0.2144-7.293,0.1299-7.4082c-0.4146-0.5659-0.3008-1.3662,0.2607-1.7866
					c0.5615-0.4214,1.3521-0.3164,1.7793,0.2397c0.1245,0.1631,3.0205,4.0542,0.1377,10.0625
					C47.2144,48.3638,46.7563,48.6313,46.2793,48.6313z"/>
			</g>
			<g>
				<path fill="#4D5152" d="M46.2793,61.2173c-0.1855,0-0.374-0.041-0.5527-0.126c-0.6377-0.3066-0.9062-1.0713-0.6001-1.708
					c2.1738-4.5303,0.2144-7.292,0.1299-7.4072c-0.4146-0.5654-0.3008-1.3652,0.2607-1.7861
					c0.5615-0.4214,1.3521-0.3164,1.7793,0.2402c0.1245,0.1621,3.0215,4.0537,0.1377,10.0605
					C47.2139,60.9497,46.7563,61.2173,46.2793,61.2173z"/>
			</g>
			<g>
				<path fill="#4D5152" d="M53.6929,54.3735c-0.1855,0-0.374-0.041-0.5527-0.126c-0.6377-0.3066-0.9062-1.0713-0.6006-1.708
					c2.2109-4.6055,0.1592-7.3701,0.1387-7.3975c-0.4307-0.561-0.3242-1.3643,0.2373-1.7944s1.3633-0.3242,1.7939,0.2378
					c0.125,0.1626,3.0215,4.0552,0.1387,10.0615C54.6274,54.106,54.1694,54.3735,53.6929,54.3735z"/>
			</g>
		</g>
		<g>
			<path fill="#4D5152" d="M26.5596,50.5601h-6.7197c-0.707,0-1.2798-0.5732-1.2798-1.2803S19.1328,48,19.8398,48h6.7197
				c0.707,0,1.2798,0.5728,1.2798,1.2798S27.2666,50.5601,26.5596,50.5601z"/>
		</g>
	</g>
</symbol>

<symbol id="icon-allergen-gluten" viewBox="0 0 98.5601 98.5601">
	<g>
		<g>
			<circle fill="#FFFDE3" cx="49.2798" cy="49.2798" r="48"/>
			<path fill="#4D5152" d="M49.2798,98.5601C22.1069,98.5601,0,76.4526,0,49.2798S22.1069,0,49.2798,0
				s49.2803,22.1069,49.2803,49.2798S76.4526,98.5601,49.2798,98.5601z M49.2798,2.5596c-25.7617,0-46.7202,20.9585-46.7202,46.7202
				s20.9585,46.7197,46.7202,46.7197s46.7197-20.958,46.7197-46.7197S75.0415,2.5596,49.2798,2.5596z"/>
		</g>
	</g>
	<circle fill="#A1D9B1" cx="49.2795" cy="49.2798" r="25.5998"/>
	<g>
		<g>
			<g>
				<path fill="#FFB957" d="M48.7041,44.2324c0.1182,0.1114,0.27,0.1675,0.4209,0.1675c0.1436,0,0.2861-0.0493,0.3999-0.1489
					c0.1499-0.1299,3.667-3.2105,3.7588-7.2173c0.0889-4.0054-3.2856-7.2407-3.4297-7.3765c-0.229-0.2168-0.583-0.2251-0.8218-0.02
					c-0.1499,0.1299-3.667,3.2124-3.7563,7.2163C45.1875,40.8594,48.5611,44.0967,48.7041,44.2324z"/>
				<path fill="#4D5152" d="M49.125,45.6797c-0.4844,0-0.9453-0.1831-1.2988-0.5156c-0.4053-0.3848-3.9287-3.8599-3.8301-8.3389
					c0.1001-4.478,3.7788-7.792,4.1978-8.1553c0.7212-0.6206,1.8569-0.5879,2.54,0.0576c0.1582,0.1494,3.9307,3.7583,3.8291,8.3345
					c-0.1025,4.479-3.7812,7.7935-4.2002,8.1562C50.0249,45.5146,49.5835,45.6797,49.125,45.6797z M49.4121,31.0493
					c-0.8936,0.9238-2.7979,3.1968-2.8564,5.8325c-0.0581,2.6348,1.7368,4.9883,2.5903,5.9556
					c0.8999-0.9312,2.7979-3.2007,2.8584-5.833C52.063,34.3555,50.2642,32.0093,49.4121,31.0493z"/>
			</g>
			<g>
				<path fill="#FFB957" d="M37.2178,63.2476c-0.1543-0.0098-0.3106,0.0449-0.4253,0.1474
					c-0.1157,0.1065-0.1841,0.2549-0.1895,0.4112c-0.0068,0.2402-0.0512,5.8281,3.2144,9.374
					c4.0234,4.3662,8.5913,3.6894,9.4512,3.5439c0.2671-0.0439-0.0274-0.2588-0.0132-0.5293
					C49.2612,76.0855,49.6875,64.0425,37.2178,63.2476z"/>
				<path fill="#4D5152" d="M47.7451,78.1294c-2.3306,0-5.7607-0.709-8.8691-4.082c-3.687-4.0039-3.5542-10.2158-3.5522-10.2773
					c0.0171-0.5039,0.2363-0.9805,0.6021-1.3174c0.356-0.3174,0.7974-0.4863,1.2563-0.4863l0.1167,0.0039
					c11.2505,0.7168,13.3638,10.2314,13.2427,14.0967c0.1699,0.4482,0.1533,0.8477-0.041,1.209
					c-0.2021,0.3779-0.5757,0.6377-1.0239,0.7109C48.9146,78.0825,48.3462,78.1294,47.7451,78.1294z M37.9102,64.5913
					c0.1035,1.5674,0.5894,5.2686,2.8486,7.7217c2.5874,2.8076,5.4434,3.2979,7.2144,3.2529
					C47.8911,73.3687,46.959,65.5854,37.9102,64.5913z"/>
			</g>
			<g>
				<path fill="#FFB957" d="M61.3423,63.2476c0.1533-0.0098,0.3105,0.0449,0.4248,0.1474c0.1162,0.1065,0.1836,0.2549,0.1904,0.4112
					c0.0059,0.2402,0.0508,5.8281-3.2158,9.374c-4.0234,4.3662-8.5918,3.6894-9.4521,3.5439
					c-0.2657-0.0439,0.0288-0.2588,0.0141-0.5293C49.2984,76.0855,48.8721,64.0425,61.3423,63.2476z"/>
				<path fill="#4D5152" d="M50.814,78.1294c-0.6016,0-1.1699-0.0469-1.7378-0.1436c-0.4434-0.0732-0.8159-0.332-1.0186-0.71
					c-0.1992-0.3721-0.2109-0.7842-0.0356-1.2236c-0.0029-1.7178,0.4604-13.2676,13.2393-14.082l0.1162-0.0039
					c0.4609,0,0.9023,0.1689,1.2441,0.4766c0.3779,0.3457,0.5928,0.8066,0.6143,1.3076c0.0078,0.2793,0.1113,6.3193-3.5527,10.2969
					C56.5747,77.4204,53.144,78.1294,50.814,78.1294z M50.5874,75.5659c0.0723,0.002,0.1484,0.0029,0.2266,0.0029
					c1.8184,0,4.5068-0.5645,6.9863-3.2559c2.2861-2.4814,2.7578-6.1582,2.8535-7.7246
					C51.6157,65.5562,50.6714,73.3433,50.5874,75.5659z"/>
			</g>
			<g>
				<path fill="#FFB957" d="M38.9736,51.8003c-0.1552-0.0146-0.3115,0.0352-0.4296,0.1367
					c-0.1172,0.1016-0.1919,0.2461-0.2002,0.4033c-0.0127,0.2129-0.189,5.1817,2.646,8.3956
					c2.4775,2.8105,5.9389,3.5048,5.9389,3.5048c0.5767,0,1.7178,0.042,2.3472-0.0449c0.2681-0.0371-0.0132-0.2842,0.0098-0.5527
					C49.293,63.5474,49.896,52.8384,38.9736,51.8003z"/>
				<path fill="#4D5152" d="M48.0601,65.5308l-1.3833-0.0352c-0.1582-0.0312-3.9155-0.8145-6.647-3.9131
					c-3.2588-3.6943-2.9673-9.2627-2.9639-9.3184c0.0259-0.4893,0.2593-0.9648,0.6396-1.2939
					c0.3408-0.293,0.7705-0.4521,1.2144-0.4521l0.1738,0.0078c9.9907,0.9492,11.6685,9.5645,11.48,13.0381
					c0.0889,0.2617,0.2021,0.7383-0.0918,1.2334c-0.126,0.2129-0.4282,0.583-1.0308,0.666
					C49.1196,65.5093,48.6777,65.5308,48.0601,65.5308z M47.0811,62.9624l0.9341,0.0078c-0.0474-2.0088-0.7837-8.6572-8.3828-9.8008
					c0.0664,1.4355,0.4341,4.585,2.3174,6.7197C43.8721,62.0698,46.5273,62.8237,47.0811,62.9624z"/>
			</g>
			<g>
				<path fill="#FFB957" d="M59.5864,51.8003c0.1543-0.0146,0.3106,0.0352,0.4278,0.1367c0.1201,0.1016,0.1914,0.2461,0.2021,0.4033
					c0.0127,0.2129,0.1895,5.1817-2.6455,8.3956c-2.4795,2.8105-5.9394,3.5048-5.9394,3.5048c-0.5791,0-1.7193,0.042-2.3477-0.0449
					c-0.269-0.0371,0.0122-0.2842-0.0102-0.5527C49.2666,63.5474,48.6636,52.8384,59.5864,51.8003z"/>
				<path fill="#4D5152" d="M50.4985,65.5308c-0.6172,0-1.0591-0.0215-1.3901-0.0674c-0.6025-0.083-0.9048-0.4531-1.0312-0.666
					c-0.3057-0.5146-0.1719-1.0088-0.0908-1.2383c-0.1675-3.4961,1.5503-12.0898,11.479-13.0332l0.1738-0.0078
					c0.4463,0,0.877,0.1602,1.2129,0.4512c0.375,0.3164,0.6064,0.7764,0.6416,1.2842c0.0039,0.0664,0.2959,5.6348-2.9629,9.3291
					c-2.7334,3.0986-6.4893,3.8818-6.6475,3.9131l-0.252,0.0254L50.4985,65.5308z M58.9282,53.1636
					c-7.5762,1.1094-8.3311,7.751-8.3818,9.8066l0.9336-0.0078c0.5449-0.1357,3.2051-0.8896,5.1309-3.0732
					C58.4976,57.7505,58.8628,54.5923,58.9282,53.1636z"/>
			</g>
			<g>
				<path fill="#FFB957" d="M48.25,52.8023c0.001,0,0.001,0,0.001,0c0.1177,0,0.2314-0.003,0.3501-0.0059
					c0.271-0.0068,0.501-0.2012,0.5522-0.4658c0.0176-0.0879,1.6177-10.0493-8.4746-12.1631
					c-0.1528-0.0327-0.311-0.0015-0.4399,0.0879c-0.1304,0.0869-0.2188,0.2231-0.2466,0.3769
					c-0.0366,0.2115-0.8726,5.2007,1.833,8.4229C43.27,50.7739,45.4321,52.8023,48.25,52.8023z"/>
				<path fill="#4D5152" d="M48.251,54.0825c-2.6055,0-5.0278-1.375-7.4058-4.2036c-3.0244-3.6025-2.2163-8.8755-2.1143-9.4648
					c0.0908-0.5034,0.3813-0.9458,0.7979-1.2236c0.3911-0.272,0.9209-0.3813,1.418-0.2744
					c9.5537,2.001,10.0439,10.7563,9.4619,13.6655c-0.1631,0.8408-0.9102,1.4727-1.7754,1.4941L48.251,54.0825z M41.1685,41.6001
					c-0.1104,1.4136-0.1187,4.541,1.6372,6.6318c1.7607,2.0947,3.4502,3.1719,5.1543,3.2812
					C48.1055,49.5859,48.0078,43.4487,41.1685,41.6001z"/>
			</g>
			<g>
				<path fill="#FFB957" d="M50.3081,52.8023L50.3081,52.8023c-0.1172,0-0.2329-0.003-0.3501-0.0059
					c-0.2705-0.0068-0.5-0.2012-0.5532-0.4658c-0.0156-0.0879-1.6152-10.0493,8.4746-12.1631
					c0.1533-0.0327,0.3145-0.0015,0.4434,0.0879c0.1299,0.0869,0.2158,0.2231,0.2441,0.3769
					c0.0371,0.2115,0.8731,5.2007-1.833,8.4229C55.2886,50.7739,53.1275,52.8023,50.3081,52.8023z"/>
				<path fill="#4D5152" d="M50.3081,54.0825l-0.3765-0.0068c-0.8794-0.0215-1.6094-0.6357-1.7817-1.4932
					c-0.561-3.1533,0.0571-11.6963,9.4668-13.668c0.4775-0.0996,1.0186,0.0005,1.4355,0.2891
					c0.3945,0.2637,0.6826,0.7046,0.7734,1.1968c0.1055,0.5991,0.9238,5.8643-2.1113,9.478
					C55.3354,52.7075,52.9126,54.0825,50.3081,54.0825z M57.3911,41.6001c-6.7969,1.8408-6.9316,7.9419-6.7891,9.9121
					c1.7021-0.1104,3.3916-1.1865,5.1523-3.2808C57.5151,46.1348,57.5044,43.0156,57.3911,41.6001z"/>
			</g>
		</g>
		<g>
			<g>
				<path fill="#4D5152" d="M39.6797,37.1333c-0.707,0-1.2798-0.5728-1.2798-1.2798V26.791c0-0.707,0.5728-1.2798,1.2798-1.2798
					s1.2798,0.5728,1.2798,1.2798v9.0625C40.9595,36.5605,40.3867,37.1333,39.6797,37.1333z"/>
			</g>
			<g>
				<path fill="#4D5152" d="M44.48,30.4658c-0.7065,0.0005-1.2798-0.5728-1.2798-1.2798l-0.001-7.0239
					c-0.0005-0.7065,0.5728-1.2798,1.2798-1.2798c0.7065-0.0005,1.2798,0.5728,1.2798,1.2798l0.001,7.0239
					C45.7603,29.8926,45.187,30.4658,44.48,30.4658z"/>
			</g>
			<g>
				<path fill="#4D5152" d="M54.0796,30.4658c-0.707,0-1.2803-0.5728-1.2803-1.2798v-7.0239c0-0.707,0.5732-1.2798,1.2803-1.2798
					s1.2803,0.5728,1.2803,1.2798v7.0239C55.3599,29.8931,54.7866,30.4658,54.0796,30.4658z"/>
			</g>
			<g>
				<path fill="#4D5152" d="M49.2798,26.5947c-0.707,0-1.2798-0.5728-1.2798-1.2798v-6.7554c0-0.707,0.5728-1.2798,1.2798-1.2798
					s1.2803,0.5728,1.2803,1.2798v6.7554C50.5601,26.022,49.9868,26.5947,49.2798,26.5947z"/>
			</g>
			<g>
				<path fill="#4D5152" d="M58.8794,37.1333c-0.707,0-1.2803-0.5728-1.2803-1.2798V26.791c0-0.707,0.5732-1.2798,1.2803-1.2798
					s1.2803,0.5728,1.2803,1.2798v9.0625C60.1597,36.5605,59.5864,37.1333,58.8794,37.1333z"/>
			</g>
		</g>
		<g>
			<rect x="48" y="45.4399" fill="#4D5152" width="2.5601" height="34.5596"/>
		</g>
	</g>
</symbol>

<symbol id="icon-allergen-milk" viewBox="0 0 98.5601 98.5601">
	<g>
		<g>
			<circle fill="#FFFDE3" cx="49.2798" cy="49.2798" r="48"/>
			<path fill="#4D5152" d="M49.2798,98.5601C22.1069,98.5601,0,76.4526,0,49.2798S22.1069,0,49.2798,0
				s49.2803,22.1069,49.2803,49.2798S76.4526,98.5601,49.2798,98.5601z M49.2798,2.5596c-25.7617,0-46.7202,20.9585-46.7202,46.7202
				s20.9585,46.7197,46.7202,46.7197s46.7197-20.958,46.7197-46.7197S75.0415,2.5596,49.2798,2.5596z"/>
		</g>
	</g>
	<g>
		<g>
			<g>
				<path fill="#CCCCCC" d="M38.856,22.9487v3.2906c0,4.3886,5.4848,17.5542,5.4848,20.8462v29.622
					c0,1.8184-1.4736,3.292-3.291,3.292H25.69c-1.8179,0-3.2901-1.4736-3.2901-3.292v-29.622c0-3.292,5.4834-16.4576,5.4834-20.8462
					v-3.2906"/>
				<path fill="#FFFFFF" d="M38.856,31.2686c0,0,5.4848,12.5249,5.4848,15.8169v29.622c0,1.8184-1.4736,3.292-3.291,3.292H25.69
					c-1.8179,0-3.2901-1.4736-3.2901-3.292v-29.622c0-3.292,5.4834-15.8169,5.4834-15.8169"/>
				<polyline fill="#FFB957" points="22.3999,66.8335 22.3999,49.2798 44.3408,49.2798 			"/>
				<polyline fill="#FFB957" points="44.3408,49.2798 44.3408,66.8335 22.3999,66.8335 			"/>
				<g>
					<path fill="#4D5152" d="M41.0498,81.2798H25.6899c-2.52,0-4.5698-2.0508-4.5698-4.5723V47.0854
						c0-1.7295,1.1626-5.3271,2.5088-9.4932c1.394-4.3135,2.9746-9.2031,2.9746-11.353v-3.2905h2.5596v3.2905
						c0,2.5537-1.5747,7.4272-3.0981,12.1401c-1.1724,3.6284-2.3853,7.3799-2.3853,8.7061v29.6221
						c0,1.1094,0.9019,2.0117,2.0103,2.0117h15.3599c1.1089,0,2.0112-0.9023,2.0112-2.0117V47.0854
						c0-1.3262-1.2129-5.0776-2.3857-8.7061c-1.5239-4.7129-3.0991-9.5864-3.0991-12.1401v-3.2905h2.5596v3.2905
						c0,2.1499,1.5806,7.0391,2.9751,11.353c1.3467,4.1655,2.5098,7.7637,2.5098,9.4932v29.6221
						C45.6206,79.229,43.5703,81.2798,41.0498,81.2798z"/>
				</g>
				<g>
					<rect x="22.3999" y="48" fill="#4D5152" width="21.9409" height="2.5601"/>
				</g>
				<g>
					<rect x="22.3999" y="65.5532" fill="#4D5152" width="21.9409" height="2.5605"/>
				</g>
				<g>
					<path fill="#B3B3B3" d="M27.8833,18.5596H38.856c1.2099,0,2.1938,0.9829,2.1938,2.1948c0,1.2114-0.9839,2.1943-2.1938,2.1943
						H27.8833c-1.2124,0-2.1933-0.9829-2.1933-2.1943C25.69,19.5425,26.6709,18.5596,27.8833,18.5596z"/>
				</g>
				<g>
					<g>
						<path fill="#4D5152" d="M38.856,24.2285H27.8833c-1.915,0-3.4731-1.5586-3.4731-3.4741c0-1.916,1.5581-3.4746,3.4731-3.4746
							H38.856c1.9155,0,3.4736,1.5586,3.4736,3.4746C42.3296,22.6699,40.7715,24.2285,38.856,24.2285z M27.8833,19.8394
							c-0.5034,0-0.9136,0.4106-0.9136,0.915s0.4102,0.9146,0.9136,0.9146H38.856c0.5039,0,0.9141-0.4102,0.9141-0.9146
							s-0.4102-0.915-0.9141-0.915H27.8833z"/>
					</g>
				</g>
			</g>
			<g>
				<g>
					<rect x="26.9697" y="54.0767" fill="#4D5152" width="12.8003" height="2.5605"/>
				</g>
				<g>
					<rect x="26.9697" y="58.5571" fill="#4D5152" width="5.1201" height="2.5605"/>
				</g>
				<g>
					<rect x="35.9297" y="58.5571" fill="#4D5152" width="3.8403" height="2.5605"/>
				</g>
			</g>
		</g>
		<g>
			<path fill="#FFFFFF" d="M55.5728,52.1226c0,0,0.0713,2.4316-3.1826,5.1855c-8.2994,7.0244-5.2505,22.6123,4.5312,22.6914h4.8379
				h0.2226h4.8389c9.7832-0.0791,12.8301-15.667,4.5313-22.6914c-3.2539-2.7539-3.1846-5.1855-3.1846-5.1855"/>
			<polyline fill="#E6E6E6" points="55.5728,52.1226 52.3902,57.3081 71.3521,57.3081 68.1675,52.1226 		"/>
			<g>
				<path fill="#4D5152" d="M61.9819,81.2798h-5.0605c-4.374-0.0352-7.9858-2.8398-9.6729-7.502
					c-1.8403-5.0859-1.2749-12.7158,4.3145-17.4463c2.667-2.2568,2.7285-4.1221,2.7295-4.2002
					c0.0117-0.6953,0.5771-1.2695,1.2725-1.2734c0.0029,0,0.0059,0,0.0078,0c0.6924,0,1.2588,0.5352,1.2793,1.2275
					c0.0098,0.3115-0.0146,3.1357-3.6348,6.1992c-4.4487,3.7656-5.1592,10.2061-3.5615,14.6221
					c1.3271,3.668,3.9785,5.7861,7.2764,5.8125h9.8887c3.2871-0.0264,5.9385-2.1445,7.2656-5.8115
					c1.5977-4.416,0.8877-10.8564-3.5615-14.623c-3.6191-3.0625-3.6455-5.8867-3.6367-6.1982
					c0.0195-0.6943,0.5889-1.2441,1.2783-1.2441c0.0127,0,0.0254,0,0.0371,0.001c0.707,0.0195,1.2637,0.6094,1.2432,1.3154
					c0.002,0.0498,0.0654,1.915,2.7324,4.1729c5.5898,4.7314,6.1553,12.3604,4.3145,17.4473
					c-1.6865,4.6611-5.2988,7.4658-9.6621,7.501H61.9819z"/>
			</g>
			<g>
				<path fill="#B3B3B3" d="M60.4819,52.1226h7.6856c1.1348,0,2.0615-0.9268,2.0615-2.0616l0,0c0-1.1337-0.9267-2.061-2.0615-2.061
					H55.7964c-1.1328,0-2.0605,0.9273-2.0605,2.061l0,0c0,1.1348,0.9277,2.0616,2.0605,2.0616h4.9004"/>
				<path fill="#4D5152" d="M68.1675,53.4028H55.7964c-1.8418,0-3.3408-1.499-3.3408-3.3418c0-1.8423,1.499-3.3408,3.3408-3.3408
					h12.3711c1.8428,0,3.3418,1.4985,3.3418,3.3408C71.5093,51.9038,70.0103,53.4028,68.1675,53.4028z M60.4819,50.8423h7.6855
					c0.4307,0,0.7812-0.3506,0.7812-0.7812s-0.3506-0.7812-0.7812-0.7812H55.7964c-0.4229,0-0.7803,0.3579-0.7803,0.7812
					c0,0.4238,0.3574,0.7812,0.7803,0.7812H60.4819z"/>
			</g>
			<g>
				<path fill="#FFB957" d="M65.1069,61.4439h9.4727c1.9697,3.9228,2.0322,8.6611,0.5283,12.3701h-10.001
					c-1.1337,0-2.0615-0.9278-2.0615-2.0615v-8.2471C63.0454,62.3726,63.9732,61.4439,65.1069,61.4439z"/>
				<path fill="#4D5152" d="M75.9702,75.0942H65.1069c-1.8428,0-3.3418-1.499-3.3418-3.3418v-8.2471
					c0-1.8428,1.499-3.3418,3.3418-3.3418h10.2627l0.3535,0.7061c2.0527,4.0869,2.2715,9.2314,0.5713,13.4258L75.9702,75.0942z
					 M65.1069,62.7241c-0.4238,0-0.7812,0.3574-0.7812,0.7812v8.2471c0,0.4238,0.3574,0.7812,0.7812,0.7812h9.1064
					c1.0244-3.126,0.8584-6.7529-0.4502-9.8096H65.1069z"/>
			</g>
		</g>
	</g>
</symbol>


<symbol id="icon-allergen-lupin" viewBox="0 0 98.5601 98.5601">
	<g>
		<g>
			<circle fill="#FFFDE3" cx="49.28" cy="49.28" r="48"/>
			<path fill="#4D5152" d="M49.28,98.559C22.107,98.559,0,76.453,0,49.28S22.107,0,49.28,0c27.172,0,49.279,22.107,49.279,49.28
				S76.452,98.559,49.28,98.559z M49.28,2.56c-25.762,0-46.72,20.958-46.72,46.72s20.958,46.719,46.72,46.719
				S95.999,75.042,95.999,49.28S75.042,2.56,49.28,2.56z"/>
		</g>
	</g>
	<g>
		<path fill="#FFB856" stroke="#4C5051" stroke-width="2.5" d="M43.184,27.962c1.704-2.266,3.819-3.504,6.021-3.504
			s4.319,1.238,6.021,3.504c0.062-0.038,0.125-0.076,0.187-0.112c0.013-0.159,0.021-0.319,0.021-0.479
			c0-1.865-0.809-4.286-2.06-6.165c-1.274-1.914-2.794-3.012-4.17-3.012s-2.896,1.098-4.17,3.011c-1.251,1.88-2.06,4.301-2.06,6.166
			c0,0.159,0.009,0.319,0.021,0.479C43.059,27.885,43.122,27.924,43.184,27.962L43.184,27.962z"/>
		<path fill="#FFB856" stroke="#4C5051" stroke-width="2.5" d="M49.206,28.208c-2.441,0-5.058,4.447-5.058,7.578
			c0,0.702,0.143,1.383,0.414,2.008c1.365-1.082,2.935-1.755,4.644-1.755s3.278,0.673,4.644,1.755
			c0.271-0.626,0.414-1.306,0.414-2.008C54.263,32.655,51.647,28.208,49.206,28.208L49.206,28.208z"/>
		<path fill="#FFB856" stroke="#4C5051" stroke-width="2.5" d="M57.096,39.705c1.741-0.909,3.51-1.23,5.124-0.902
			c0.031-0.085,0.059-0.171,0.084-0.259c0.394-1.377,0.305-3.341-0.227-5.006c-0.516-1.616-1.378-2.74-2.309-3.007
			c-0.736-0.21-1.701,0.05-2.709,0.704c0.612,1.527,0.953,3.114,0.953,4.551C58.014,37.168,57.695,38.501,57.096,39.705
			L57.096,39.705z"/>
		<path fill="#FFB856" stroke="#4C5051" stroke-width="2.5" d="M57.99,43.54c0.771,1.846,1.201,3.768,1.201,5.433
			c0,1.779-0.477,3.516-1.362,5.032c2.366-1.564,4.82-2.208,7.031-1.817c0.445-1.661,0.333-3.978-0.293-5.942
			c-0.646-2.022-1.708-3.38-2.915-3.726C60.645,42.231,59.329,42.611,57.99,43.54L57.99,43.54z"/>
		<path fill="#FFB856" stroke="#4C5051" stroke-width="2.5" d="M49.206,48.85c2.159,0,4.13,0.916,5.816,2.365
			c0.273-0.71,0.419-1.47,0.419-2.243c0-1.866-0.81-4.288-2.062-6.17c-1.274-1.915-2.796-3.014-4.174-3.014
			c-1.377,0-2.899,1.099-4.174,3.014c-1.252,1.882-2.062,4.304-2.062,6.17c0,0.773,0.146,1.533,0.419,2.243
			C45.076,49.766,47.046,48.85,49.206,48.85z"/>
		<path fill="#FFB856" stroke="#4C5051" stroke-width="2.5" d="M49.206,52.6c-1.826,0-3.813,1.41-5.452,3.871
			c-1.573,2.364-2.59,5.416-2.59,7.776c0,3.788,2.635,6.972,6.167,7.819v10.128h3.75V72.067c3.532-0.848,6.167-4.031,6.167-7.819
			c0-2.36-1.017-5.412-2.59-7.776C53.019,54.01,51.032,52.6,49.206,52.6L49.206,52.6z"/>
		<path fill="#FFB856" stroke="#4C5051" stroke-width="2.5" d="M36.191,38.802c1.614-0.328,3.383-0.007,5.124,0.902
			c-0.599-1.202-0.917-2.536-0.917-3.919c0-1.437,0.341-3.023,0.953-4.551c-1.007-0.654-1.973-0.915-2.711-0.703
			c-0.929,0.266-1.791,1.39-2.307,3.006c-0.531,1.665-0.62,3.63-0.227,5.006C36.132,38.632,36.16,38.718,36.191,38.802z"/>
		<path fill="#FFB856" stroke="#4C5051" stroke-width="2.5" d="M68.388,60.786c-0.833-2.608-2.235-4.37-3.848-4.831
			c-1.42-0.405-3.268,0.149-5.101,1.497c0.999,2.295,1.558,4.715,1.558,6.796c0,3.266-1.336,6.226-3.487,8.363
			c0.615,0.399,1.29,0.708,2.007,0.913c1.911,0.546,3.921,0.316,5.659-0.649c1.737-0.966,2.995-2.55,3.542-4.46
			C69.323,66.302,69.192,63.308,68.388,60.786z"/>
		<path fill="#FFB856" stroke="#4C5051" stroke-width="2.5" d="M40.582,54.005c-0.885-1.517-1.361-3.253-1.361-5.032
			c0-1.665,0.43-3.587,1.202-5.433c-1.34-0.929-2.656-1.309-3.663-1.021c-1.207,0.346-2.27,1.703-2.915,3.726
			c-0.626,1.966-0.738,4.282-0.293,5.942C35.762,51.797,38.218,52.44,40.582,54.005L40.582,54.005z"/>
		<path fill="#FFB856" stroke="#4C5051" stroke-width="2.5" d="M38.972,57.452c-1.834-1.348-3.682-1.902-5.1-1.497
			c-1.614,0.461-3.017,2.223-3.85,4.831c-0.804,2.522-0.934,5.517-0.33,7.629c0.547,1.91,1.805,3.494,3.542,4.46
			c1.738,0.966,3.748,1.195,5.659,0.649c0.717-0.205,1.392-0.514,2.007-0.913c-2.151-2.138-3.487-5.098-3.487-8.363
			C37.414,62.167,37.972,59.747,38.972,57.452L38.972,57.452z"/>
	</g>
</symbol>

<symbol id="icon-allergen-mollusks" viewBox="0 0 98.5601 98.5601">
	<g>
		<g>
			<circle fill="#FFFDE3" cx="49.2798" cy="49.2798" r="48"/>
			<path	fill="#4D5152"	d="M49.2798,98.5601C22.1069,98.5601,0,76.4526,0,49.2798S22.1069,0,49.2798,0
			s49.2803,22.1069,49.2803,49.2798S76.4526,98.5601,49.2798,98.5601z M49.2798,2.5596c-25.7617,0-46.7202,20.9585-46.7202,46.7202
			s20.9585,46.7197,46.7202,46.7197s46.7197-20.958,46.7197-46.7197S75.0415,2.5596,49.2798,2.5596z"/>
		</g>
	</g>
	<g>
		<g>
			<path
				fill="#FFB957"
				d="M79.8189,49.0523c-0.7198-4.0176-2.211-7.4639-5.3858-4.9024c0,0,4.1201-5.7939,0.6006-10.4028
			c-2.1016-2.7549-5.5322-2.2222-6.3525,0.04l0.8203-2.2622c0.8447-2.3291,0.0244-4.9087-2.0332-6.4028
			c-3.6563-2.6533-8.96-0.5698-9.583,3.7651l0.039-0.2788c0.7178-4.9863-3.3545-9.4297-8.643-9.4297
			c-5.2911,0-9.3628,4.4434-8.6455,9.4297l0.039,0.2725c-0.6284-4.3296-5.9292-6.4112-9.583-3.7588
			c-2.0581,1.4941-2.8774,4.0737-2.0327,6.4028l0.8198,2.2622c-0.8198-2.2622-4.2505-2.7949-6.3535-0.04
			c-3.5185,4.6089,0.6016,10.4028,0.6016,10.4028c-3.1739-2.5615-4.6665,0.8848-5.3868,4.9024
			c-0.8872,4.9541,1.629,7.0361,4.6695,9.6884l14.9365,13.1768h21.8672l14.9355-13.1768
			C78.1919,56.0884,80.7066,54.0064,79.8189,49.0523z"/>
			<path
				fill="#4D5152"
				d="M60.2134,73.1978H38.3462c-0.312,0-0.6128-0.1143-0.8467-0.3203l-15.104-13.3223
			c-3.041-2.6514-5.9136-5.1543-4.915-10.7285c0.2871-1.6021,1.1299-6.3037,4.125-6.7964c-0.9126-2.3955-1.499-5.9146,0.9023-9.0601
			c1.2759-1.6709,3.1997-2.5469,5.0112-2.3403c-0.3652-2.4785,0.6782-4.9883,2.8208-6.5435
			c1.2803-0.9297,2.791-1.4204,4.3691-1.4204c1.9551,0,3.7295,0.7144,5.04,1.9077c0.3862-1.1626,1.0034-2.2559,1.8306-3.2104
			c1.9077-2.2017,4.7148-3.4644,7.7017-3.4644c2.9858,0,5.7925,1.2627,7.6997,3.4639c0.8271,0.9551,1.4443,2.0479,1.8301,3.21
			c1.3096-1.1929,3.084-1.9072,5.0391-1.9072c1.5781,0,3.0898,0.4912,4.3701,1.4204c2.1426,1.5562,3.1865,4.0654,2.8213,6.5439
			c1.8135-0.2036,3.7354,0.6689,5.0098,2.3408c2.4023,3.1455,1.8154,6.6641,0.9033,9.0596c2.9951,0.4922,3.8369,5.1943,4.124,6.7964
			c0.999,5.5762-1.876,8.0811-4.9209,10.7324l-0.168,0.1465L61.0601,72.8774C60.8267,73.0835,60.5249,73.1978,60.2134,73.1978z
			 M38.8301,70.6372H59.729l14.748-13.0088c2.9053-2.5303,4.8252-4.2021,4.082-8.3506c-0.6689-3.7334-1.6504-4.7295-2.125-4.7295
			c-0.1709,0-0.5527,0.0776-1.1973,0.5977c-0.4961,0.4019-1.2158,0.3755-1.6807-0.064c-0.4658-0.438-0.5371-1.1528-0.166-1.6738
			c0.0332-0.0483,3.5215-5.0933,0.626-8.8843c-0.6611-0.8672-1.5469-1.3643-2.4297-1.3643c-0.8125,0-1.4639,0.4077-1.7021,1.064
			c-0.2412,0.6641-0.9717,1.0088-1.6396,0.7666c-0.5205-0.1885-0.8438-0.6797-0.8438-1.2031c0-0.145,0.0244-0.2925,0.0771-0.4365
			l0.8203-2.2622c0.6494-1.7905,0.0137-3.772-1.582-4.9307c-0.8398-0.6099-1.8311-0.9321-2.8662-0.9321
			c-2.0596,0-4.335,1.3203-4.6982,3.8438c-0.1006,0.6992-0.7607,1.1855-1.4463,1.085c-0.6992-0.0991-1.1855-0.7456-1.0879-1.4448
			l0.0391-0.2788c0.2812-1.9546-0.291-3.8677-1.6113-5.3916c-1.4199-1.6396-3.5215-2.5806-5.7642-2.5806
			c-2.2437,0-4.3457,0.9409-5.7666,2.5811c-1.3203,1.5234-1.8926,3.4365-1.6118,5.3867l0.0386,0.2695c0,0.0005,0,0.001,0,0.001
			l0.0005,0.0024c0.1001,0.6992-0.3853,1.3477-1.0845,1.4487c-0.7017,0.103-1.3477-0.3843-1.4492-1.083
			c-0.3657-2.5205-2.6411-3.8394-4.6992-3.8394c-1.0342,0-2.0254,0.3223-2.8652,0.9321c-1.5952,1.1582-2.231,3.1396-1.5815,4.9307
			l0.8203,2.2627c0.0518,0.144,0.0767,0.2915,0.0767,0.436c0,0.5234-0.3237,1.0146-0.8442,1.2036
			c-0.6655,0.2383-1.3984-0.103-1.6396-0.7676c-0.2373-0.6562-0.8896-1.0635-1.7012-1.0635c-0.8833,0-1.7695,0.4971-2.4312,1.3643
			c-2.9126,3.8149,0.5913,8.834,0.627,8.8843c0.3706,0.521,0.2998,1.2358-0.166,1.6738c-0.4653,0.4385-1.1841,0.4648-1.6807,0.064
			c-0.644-0.52-1.0264-0.5977-1.1963-0.5977c-0.4751,0-1.4575,0.9966-2.127,4.73c-0.7422,4.145,1.1753,5.8169,4.0776,8.3472
			l0.1733,0.1504L38.8301,70.6372z"/>
		</g>
		<g>

			<rect x="23.1577" y="48.2966" transform="matrix(0.1989 0.98 -0.98 0.1989 84.5297 -4.2606)" fill="#4D5152" width="43.4267" height="2.5601"/>
		</g>
		<g>

			<rect x="52.5474" y="27.3745" transform="matrix(0.98 0.1991 -0.1991 0.98 10.8503 -9.7337)" fill="#4D5152" width="2.5605" height="43.4273"/>
		</g>
		<g>

			<rect x="57.9291" y="30.135" transform="matrix(0.8859 0.4639 -0.4639 0.8859 30.7548 -21.565)" fill="#4D5152" width="2.5597" height="43.1856"/>
		</g>
		<g>

			<rect x="60.5423" y="39.1879" transform="matrix(0.7256 0.6882 -0.6882 0.7256 56.5649 -26.7521)" fill="#4D5152" width="2.56" height="36.7063"/>
		</g>
		<g>

			<rect x="17.7883" y="50.4476" transform="matrix(0.4588 0.8886 -0.8886 0.4588 67.2418 -6.937)" fill="#4D5152" width="43.0538" height="2.5599"/>
		</g>
		<g>

			<rect x="18.0216" y="56.0479" transform="matrix(0.683 0.7304 -0.7304 0.683 53.4595 -8.5174)" fill="#4D5152" width="37.0407" height="2.5599"/>
		</g>
		<g>
			<path fill="#FFFDE3" d="M38.5869,78.7847c-0.9394,0-1.9458-1.3877-1.9458-3.4541c0-2.0528,1.0274-3.586,1.9458-3.586h21.3863
			c0.9179,0,1.9453,1.5332,1.9453,3.586c0,2.0664-1.0059,3.4541-1.9453,3.4541H38.5869z"/>
			<g>
				<path
					fill="#4D5152"
					d="M59.8823,73.0239c0.251,0.1846,0.7569,1.0088,0.7569,2.3067c0,1.2637-0.4883,2.0283-0.7207,2.1748
				H38.6416c-0.2319-0.1465-0.7202-0.9111-0.7202-2.1748c0-1.2979,0.5049-2.1221,0.7568-2.3067H59.8823 M59.9732,70.4644H38.5869
				c-1.7812,0-3.2256,2.1787-3.2256,4.8662c0,2.6894,1.4444,4.7344,3.2256,4.7344h21.3863c1.7812,0,3.2255-2.045,3.2255-4.7344
				C63.1987,72.6431,61.7544,70.4644,59.9732,70.4644L59.9732,70.4644z"/>
			</g>
		</g>
		<g>
			<path fill="#FFB957" d="M49.2803,67.5972c3.8286,0,7.3393,1.1592,10.1216,2.2685l-7.8086,8.584
			c-1.1289,1.2412-3.4981,1.2412-4.627,0l-7.8091-8.584C41.94,68.7564,45.4507,67.5972,49.2803,67.5972z"/>
			<path
				fill="#4D5152"
				d="M49.2798,80.6606c-1.292,0-2.4805-0.4922-3.2603-1.3496l-9.0522-9.9502l1.7158-0.6846
			c2.7559-1.0977,6.4507-2.3594,10.5972-2.3594c4.146,0,7.8403,1.2617,10.5952,2.3604l1.7158,0.6836l-9.0508,9.9502
			C51.7603,80.1685,50.5718,80.6606,49.2798,80.6606z M41.3716,70.3979l6.5415,7.1904c0.584,0.6406,2.1509,0.6406,2.7329,0
			l6.542-7.1904c-2.2666-0.8008-4.9893-1.5205-7.9077-1.5205C46.3613,68.8774,43.6387,69.5972,41.3716,70.3979z"/>
		</g>
	</g>
</symbol>

<symbol id="icon-allergen-mustard" viewBox="0 0 98.5601 98.5601">
	<g>
		<g>
			<circle fill="#FFFDE3" cx="49.2798" cy="49.2798" r="48"/>
			<path fill="#4D5152" d="M49.2798,98.5601C22.1069,98.5601,0,76.4526,0,49.2798S22.1069,0,49.2798,0
				s49.2803,22.1069,49.2803,49.2798S76.4526,98.5601,49.2798,98.5601z M49.2798,2.5596c-25.7617,0-46.7202,20.9585-46.7202,46.7202
				s20.9585,46.7197,46.7202,46.7197s46.7197-20.958,46.7197-46.7197S75.0415,2.5596,49.2798,2.5596z"/>
		</g>
	</g>
	<g id="mustard-free-mustard-bottle">
		<g>
			<polyline fill="#FFB957" points="44.2158,33.7197 47.0269,18.561 51.2974,18.5596 54.3433,33.7197 		"/>
			<path fill="#4D5152" d="M54.3423,35c-0.5977,0-1.1318-0.4199-1.2539-1.0283L50.249,19.8398l-2.1577,0.001l-2.6172,14.1123
				c-0.1284,0.6953-0.7949,1.1567-1.4917,1.0249c-0.6948-0.1284-1.1538-0.7964-1.0254-1.4917l2.8115-15.1587
				c0.1123-0.6064,0.6411-1.0464,1.2578-1.0464l4.271-0.0015l0,0c0.6094,0,1.1348,0.4297,1.2549,1.0278l3.0459,15.1602
				c0.1396,0.6929-0.3096,1.3677-1.0029,1.5068C54.5103,34.9917,54.4253,35,54.3423,35z"/>
		</g>
		<g>
			<polyline fill="#FFB957" points="37.9097,40.3975 37.9097,31.1109 60.6499,31.1109 60.6499,40.3975 		"/>
			<polygon fill="#4D5152" points="61.9302,40.3975 59.3696,40.3975 59.3696,32.3906 39.1895,32.3906 39.1895,40.3975
				36.6299,40.3975 36.6299,29.8311 61.9302,29.8311 		"/>
		</g>
		<g>
			<path fill="#FFB957" d="M66.0444,74.5122c-1.2226,2.7998-3.4179,4.5967-6.7031,5.4873h-20.124
				c-3.2852-0.8896-5.4795-2.6875-6.7026-5.4873c-4.8267-11.0351,6.6894-32.8926,7.3007-34.0386h18.9292
				C59.356,41.6196,70.8716,63.4771,66.0444,74.5122z"/>
			<path fill="#4D5152" d="M59.5122,81.2798l-20.6294-0.0449c-3.6333-0.9834-6.1709-3.0732-7.541-6.21
				c-4.9956-11.4209,6.0664-32.7583,7.3442-35.1538l0.3613-0.6772h20.4648l0.3613,0.6772
				c1.2783,2.3955,12.3398,23.7319,7.3438,35.1538c-1.3691,3.1348-3.9062,5.2246-7.541,6.21L59.5122,81.2798z M39.3911,78.7192
				h19.7764c2.8359-0.8057,4.6514-2.3086,5.7041-4.7197c4.1943-9.5879-4.9258-28.3755-6.9043-32.2461h-17.375
				c-1.978,3.8706-11.0981,22.6582-6.9048,32.2461C34.7417,76.4126,36.5566,77.9155,39.3911,78.7192z"/>
		</g>
		<g>
			<g>
				<path fill="#4D5152" d="M43.4048,41.2983c-0.707,0-1.2798-0.5728-1.2798-1.2798v-5.4961c0-0.707,0.5728-1.2798,1.2798-1.2798
					s1.2798,0.5728,1.2798,1.2798v5.4961C44.6846,40.7256,44.1118,41.2983,43.4048,41.2983z"/>
			</g>
			<g>
				<path fill="#4D5152" d="M49.2798,41.2983c-0.707,0-1.2798-0.5728-1.2798-1.2798v-5.4961c0-0.707,0.5728-1.2798,1.2798-1.2798
					s1.2803,0.5728,1.2803,1.2798v5.4961C50.5601,40.7256,49.9868,41.2983,49.2798,41.2983z"/>
			</g>
			<g>
				<path fill="#4D5152" d="M55.1548,41.2983c-0.707,0-1.2803-0.5728-1.2803-1.2798v-5.4961c0-0.707,0.5732-1.2798,1.2803-1.2798
					s1.2803,0.5728,1.2803,1.2798v5.4961C56.4351,40.7256,55.8618,41.2983,55.1548,41.2983z"/>
			</g>
		</g>
		<g>
			<path fill="#FFFFFF" d="M54.0659,69.6021h-9.5791L42.5596,52.77c2.4931-2.4902,6.4604-2.5625,6.5107-2.5625
				c0.0694-0.0014,0.1363-0.0166,0.2056-0.0229c0.0649,0.0063,0.1284,0.0215,0.1938,0.0229c0.043,0,4.021,0.0684,6.5298,2.5664
				L54.0659,69.6021z"/>
			<path fill="#4D5152" d="M54.0659,70.8823h-9.5791c-0.6504,0-1.1978-0.4883-1.2715-1.1348l-1.9272-16.832
				c-0.0444-0.3877,0.0903-0.7754,0.3667-1.0508c2.9067-2.9038,7.3706-2.937,7.4155-2.937c0.0801-0.0078,0.25-0.0278,0.3301-0.0171
				l0.144,0.0186c0.0078,0.0088,4.4463,0.0381,7.3584,2.9375c0.2773,0.2764,0.4131,0.6641,0.3682,1.0537l-1.9336,16.8281
				C55.2632,70.394,54.7163,70.8823,54.0659,70.8823z M45.6284,68.3218h7.2959l1.7285-15.0391
				c-2.125-1.7178-5.167-1.7949-5.1997-1.7949c-0.0645-0.002-0.124-0.0059-0.1821-0.0127c-0.0596,0.0068-0.1167,0.0107-0.1738,0.0117
				c-0.0425,0.001-3.0771,0.0781-5.1909,1.791L45.6284,68.3218z"/>
		</g>
	</g>
</symbol>


<symbol id="icon-allergen-nut" viewBox="0 0 98.5601 98.5601">
	<g>
		<g>
			<circle fill="#FFFDE3" cx="49.2798" cy="49.2798" r="48"/>
			<path fill="#4D5152" d="M49.2798,98.5601C22.1069,98.5601,0,76.4526,0,49.2798S22.1069,0,49.2798,0
				s49.2803,22.1069,49.2803,49.2798S76.4526,98.5601,49.2798,98.5601z M49.2798,2.5596c-25.7617,0-46.7202,20.9585-46.7202,46.7202
				s20.9585,46.7197,46.7202,46.7197s46.7197-20.958,46.7197-46.7197S75.0415,2.5596,49.2798,2.5596z"/>
		</g>
	</g>
	<g>
		<g>
			<path fill="#FFB957" d="M70.1509,40.27v14.9893c0,9.4492-3.5283,16.4814-10.4863,20.9033
				c-4.6534,2.958-9.3233,3.7061-10.3208,3.8369c-1.0103-0.2285-5.7915-1.4306-10.4903-4.666
				c-6.9311-4.7715-10.4463-11.5264-10.4463-20.0742V40.27"/>
			<path fill="#4D5152" d="M49.5103,81.269l-0.4487-0.0215c-0.9639-0.2178-6.02-1.4766-10.9341-4.8594
				c-7.2993-5.0254-11-12.1338-11-21.1289V40.27h2.5596v14.9893c0,8.1016,3.3286,14.501,9.8921,19.0195
				c4.228,2.9111,8.5508,4.1113,9.8237,4.4199c1.2432-0.1865,5.4229-0.9775,9.5752-3.6162
				c6.5645-4.1719,9.8926-10.8418,9.8926-19.8232V40.27h2.5605v14.9893c0,9.915-3.7285,17.3115-11.0801,21.9834
				C55.439,80.3657,50.4585,81.144,49.5103,81.269z"/>
		</g>
		<g>
			<path fill="#A1D9B1" d="M25.2012,37.7598c0-6.1939,5.0386-11.232,11.2309-11.232h2.9903c3.3149,0,6.3335-1.9443,7.6924-4.9531
				c0.4111-0.9131,0.7924-1.8349,1.1313-2.7383c0.0864-0.2285,0.2622-0.2768,0.396-0.2768c0.1314,0,0.3066,0.0469,0.4004,0.2695
				c0.4922,1.1611,1.0908,2.3438,1.7783,3.5127c1.5186,2.5816,4.3145,4.186,7.2949,4.186h4.0088
				c6.1944,0,11.2324,5.0381,11.2324,11.232c0,1.3052-0.9306,2.3965-2.165,2.645H27.3648
				C26.1323,40.1563,25.2012,39.065,25.2012,37.7598z"/>
			<path fill="#4D5152" d="M71.1919,41.6846H27.3647l-0.2529-0.0249c-1.8486-0.373-3.1904-2.0132-3.1904-3.8999
				c0-6.8989,5.6123-12.5117,12.5107-12.5117h2.9902c2.812,0,5.3735-1.6489,6.5259-4.2002c0.4023-0.8936,0.7725-1.7891,1.0996-2.6611
				c0.2588-0.6841,0.8691-1.1069,1.5942-1.1069c0.7012,0,1.3066,0.4033,1.5801,1.0527c0.4697,1.1079,1.043,2.2393,1.7021,3.3604
				c1.29,2.1929,3.6621,3.5552,6.1914,3.5552h4.0088c6.8994,0,12.5127,5.6128,12.5127,12.5117c0,1.8872-1.3428,3.5273-3.1924,3.8999
				L71.1919,41.6846z M27.5132,39.125h43.5303c0.6045-0.1709,1.0332-0.7285,1.0332-1.3652c0-5.4873-4.4648-9.9521-9.9521-9.9521
				h-4.0088c-3.4326,0-6.6504-1.8457-8.3984-4.8169c-0.3618-0.6157-0.7007-1.2354-1.0132-1.855
				c-0.1367,0.3213-0.2773,0.6431-0.4224,0.9644c-1.5659,3.4678-5.0435,5.7075-8.8594,5.7075h-2.9902
				c-5.4868,0-9.9512,4.4648-9.9512,9.9521C26.481,38.3965,26.9092,38.9541,27.5132,39.125z"/>
		</g>
		<g>
			<path fill="#4D5152" d="M30.1431,37.9644c-0.0562,0-0.1128-0.0039-0.1699-0.0117c-0.6987-0.0933-1.1914-0.73-1.1006-1.4292
				c0.0312-0.2407,0.8569-5.9106,8.8369-7.2554c0.7046-0.1177,1.3579,0.3525,1.4751,1.0493
				c0.1177,0.6973-0.3525,1.3574-1.0493,1.4751c-6.103,1.0283-6.7017,4.8975-6.7241,5.0615
				C31.3232,37.4956,30.7734,37.9644,30.1431,37.9644z"/>
		</g>
		<g>
			<path fill="#4D5152" d="M43.335,72.48c-0.228,0-0.459-0.0605-0.668-0.1885c-3.0142-1.8477-5.3809-4.5664-7.0342-8.082
				c-1.3833-2.9385-2.1143-6.2803-2.1143-9.6631v-4.6187c0-0.707,0.5728-1.2798,1.2798-1.2798s1.2798,0.5728,1.2798,1.2798v4.6187
				c0,3.0088,0.647,5.9727,1.8711,8.5732c1.437,3.0557,3.4746,5.4072,6.0557,6.9883c0.6025,0.3701,0.792,1.1582,0.4224,1.7607
				C44.186,72.2622,43.7651,72.48,43.335,72.48z"/>
		</g>
	</g>
</symbol>

<symbol id="icon-allergen-peanut" viewBox="0 0 98.5601 98.5601">
	<g>
		<g>
			<circle fill="#FFFDE3" cx="49.2798" cy="49.2798" r="48"/>
			<path fill="#4D5152" d="M49.2798,98.5601C22.1069,98.5601,0,76.4526,0,49.2798S22.1064,0,49.2788,0
				c27.1738,0,49.2812,22.1069,49.2812,49.2798c0,13.1631-5.126,25.5381-14.4336,34.8457
				C74.8179,93.4341,62.4429,98.5601,49.2798,98.5601z M49.2798,2.5596c-25.7617,0-46.7202,20.9585-46.7202,46.7202
				s20.9585,46.7197,46.7202,46.7197c12.4795,0,24.2119-4.8594,33.0361-13.6836c8.8242-8.8252,13.6846-20.5576,13.6836-33.0361
				C95.9995,23.5181,75.0415,2.5596,49.2798,2.5596z"/>
		</g>
	</g>
	<g>
		<g>
			<path fill="#FFB957" d="M50.8247,26.6118c5.7442-5.7431,14.3701-4.8647,20.1787,0.9453
				c5.8077,5.8077,6.6856,14.4341,0.9444,20.1758c-5.7403,5.7403-9.9629,4.2871-14.9444,9.2696
				c-4.9795,4.9804-3.5273,9.2021-9.2685,14.9433c-5.7427,5.7422-14.3677,4.8643-20.1763-0.9443
				c-5.81-5.8096-6.6875-14.4356-0.9448-20.1768c5.7412-5.7422,9.9585-4.2886,14.9409-9.272
				C46.5371,36.5708,45.086,32.3521,50.8247,26.6118z"/>
			<path fill="#4D5152" d="M38.5181,77.1118c-4.2944,0-8.5078-1.8486-11.8647-5.2051c-3.0874-3.0879-4.9258-6.9717-5.1768-10.9385
				c-0.2617-4.1348,1.2412-8.0586,4.2324-11.0488c3.1548-3.1553,5.958-4.2969,8.4312-5.3042
				c2.2056-0.8984,4.2891-1.7471,6.5093-3.9673c2.2207-2.2207,3.0693-4.3047,3.9683-6.5112
				c1.0068-2.4727,2.1484-5.2759,5.3018-8.4297c2.7891-2.7881,6.2891-4.2617,10.123-4.2617c4.2949,0,8.5088,1.8491,11.8662,5.207
				c6.5361,6.5356,6.9414,15.9873,0.9443,21.9858c-3.1543,3.1543-5.959,4.2959-8.4336,5.3027
				c-2.207,0.8984-4.291,1.7461-6.5107,3.9668c-2.2188,2.2188-3.0664,4.3018-3.9639,6.5078
				c-1.0078,2.4746-2.1494,5.2793-5.3047,8.4355C45.8521,75.6382,42.3521,77.1118,38.5181,77.1118z M60.0425,24.0054
				c-3.1406,0-6.0146,1.2144-8.3125,3.5117c-2.7881,2.7881-3.7368,5.1182-4.7417,7.5854c-0.9546,2.3447-1.9424,4.7695-4.5283,7.3555
				s-5.0103,3.5732-7.3545,4.5283c-2.4668,1.0044-4.7974,1.9536-7.5864,4.7437c-2.4995,2.498-3.7051,5.6367-3.4878,9.0762
				c0.2119,3.3447,1.7856,6.6436,4.4326,9.29c2.873,2.873,6.4438,4.4561,10.0542,4.4561c3.1401,0,6.0142-1.2148,8.3115-3.5117
				c2.79-2.79,3.7393-5.1211,4.7441-7.5898c0.9541-2.3447,1.9404-4.7686,4.5244-7.3535c2.5859-2.5859,5.0107-3.5732,7.3564-4.5273
				c2.4688-1.0049,4.7998-1.9536,7.5879-4.7422c5.0469-5.0474,4.6504-12.771-0.9443-18.3652
				C67.2251,25.5879,63.6538,24.0054,60.0425,24.0054z"/>
		</g>
		<g>
			<path fill="#4D5152" d="M28.9497,67.6567c-0.4595,0-0.9038-0.248-1.1333-0.6836c-0.3501-0.6641-0.6406-1.2598-0.8877-1.8223
				c-0.2852-0.6475,0.0088-1.4023,0.6558-1.6875c0.6494-0.2812,1.4033,0.0088,1.687,0.6562
				c0.2231,0.5068,0.4878,1.0498,0.8096,1.6602c0.3296,0.625,0.0898,1.3994-0.5352,1.7285
				C29.3555,67.6089,29.1509,67.6567,28.9497,67.6567z M27.0815,61.8364c-0.001,0-0.002,0-0.0029,0
				c-0.707-0.002-1.2788-0.5762-1.2769-1.2832c0.0029-1.251,0.3042-2.4385,0.9209-3.6328c0.3247-0.627,1.0981-0.875,1.7246-0.5488
				c0.6284,0.3242,0.8745,1.0967,0.5498,1.7246c-0.4316,0.835-0.6333,1.6172-0.6357,2.4629
				C28.3599,61.2651,27.7871,61.8364,27.0815,61.8364z M30.4336,55.4429c-0.3232,0-0.6465-0.1221-0.8955-0.3652
				c-0.5049-0.4951-0.5137-1.3047-0.019-1.8105l0.1514-0.1523c0.7793-0.7793,1.5596-1.459,2.3809-2.0713
				c0.5664-0.4219,1.3687-0.3066,1.791,0.2607c0.4229,0.5674,0.3062,1.3691-0.2607,1.792c-0.7207,0.5371-1.4092,1.1367-2.1055,1.834
				l-0.1279,0.1279C31.0977,55.314,30.7656,55.4429,30.4336,55.4429z M36.4683,51.2261c-0.4873,0-0.9531-0.2793-1.167-0.7529
				c-0.2915-0.6436-0.0059-1.4019,0.6382-1.6934c0.6479-0.293,1.2837-0.5522,1.9141-0.8086
				c0.3496-0.1426,0.6973-0.2837,1.0444-0.4307c0.6514-0.2729,1.4019,0.0303,1.6772,0.6807
				c0.2749,0.6514-0.0298,1.4023-0.6807,1.6777c-0.3574,0.1509-0.7158,0.2969-1.0762,0.4434
				c-0.6001,0.2441-1.2065,0.4902-1.8232,0.7695C36.8237,51.189,36.6445,51.2261,36.4683,51.2261z M43.1089,47.9868
				c-0.397,0-0.7881-0.1841-1.0386-0.5308c-0.4141-0.5732-0.2852-1.373,0.2881-1.7871c0.6201-0.4482,1.2036-0.9478,1.7837-1.5283
				c0.1362-0.1367,0.269-0.2739,0.3965-0.4111c0.4805-0.5181,1.291-0.5474,1.8091-0.0649c0.5176,0.4814,0.5464,1.2915,0.0649,1.8091
				c-0.147,0.1577-0.3003,0.3164-0.4585,0.4756c-0.6787,0.6792-1.3643,1.2661-2.0967,1.7949
				C43.6309,47.9077,43.3687,47.9868,43.1089,47.9868z M47.9043,42.4341c-0.1987,0-0.4009-0.0464-0.5894-0.1445
				c-0.6274-0.3262-0.8716-1.0986-0.5454-1.7261c0.4609-0.8867,0.8223-1.7744,1.2046-2.7139l1.2178,0.4033l1.1533,0.562
				c-0.3877,0.9521-0.7886,1.937-1.3042,2.9292C48.813,42.1826,48.3667,42.4341,47.9043,42.4341z M50.9956,35.708
				c-0.2217,0-0.4453-0.0576-0.6504-0.1782c-0.6084-0.3594-0.8101-1.144-0.4507-1.7529c0.5737-0.9712,1.2183-1.873,1.9712-2.7573
				c0.458-0.5366,1.2656-0.603,1.8047-0.1445c0.5381,0.4585,0.6025,1.2661,0.1445,1.8047c-0.6572,0.771-1.2178,1.5557-1.7158,2.3989
				C51.8599,35.4829,51.4331,35.708,50.9956,35.708z M55.8784,30.1875c-0.3809,0-0.7578-0.1694-1.0098-0.4927
				c-0.4355-0.5576-0.3359-1.3618,0.2217-1.7969c1.0898-0.8506,2.126-1.4224,3.167-1.7476c0.6768-0.21,1.3926,0.165,1.6035,0.8398
				s-0.165,1.3926-0.8398,1.6035c-0.7422,0.2319-1.5127,0.6646-2.3564,1.3228C56.4312,30.0986,56.1538,30.1875,55.8784,30.1875z
				 M65.7593,29.9175c-0.1826,0-0.3691-0.0396-0.5459-0.1226c-1.1016-0.52-1.9795-0.8687-2.7627-1.0972
				c-0.6787-0.1982-1.0684-0.9087-0.8701-1.5874c0.1982-0.6792,0.9102-1.0664,1.5869-0.8706
				c0.916,0.2671,1.9131,0.6611,3.1396,1.2397c0.6387,0.3018,0.9121,1.0649,0.6104,1.7041
				C66.6997,29.6465,66.2388,29.9175,65.7593,29.9175z"/>
		</g>
		<g>
			<path fill="#4D5152" d="M38.0049,72.7583c-0.7056,0-1.2778-0.5713-1.2798-1.2764c-0.0024-0.707,0.5693-1.2822,1.2764-1.2842
				c0.8447-0.002,1.6274-0.2041,2.4634-0.6357c0.6274-0.3262,1.3999-0.0781,1.7246,0.5488c0.3247,0.6279,0.0786,1.4004-0.5498,1.7246
				c-1.1938,0.6172-2.3813,0.9189-3.6313,0.9229C38.0073,72.7583,38.0059,72.7583,38.0049,72.7583z M33.9238,71.7407
				c-0.1724,0-0.3472-0.0352-0.5146-0.1084c-0.5625-0.2471-1.1597-0.5381-1.8247-0.8896c-0.625-0.3301-0.8643-1.1045-0.5342-1.7295
				c0.3306-0.625,1.106-0.8633,1.7295-0.5342c0.6104,0.3223,1.1533,0.5869,1.6597,0.8096c0.647,0.2842,0.9409,1.04,0.6567,1.6865
				C34.8853,71.4546,34.416,71.7407,33.9238,71.7407z M44.397,69.4048c-0.3369,0-0.6733-0.1328-0.9243-0.3955
				c-0.4893-0.5098-0.4717-1.3203,0.0391-1.8096l0.1177-0.1162c0.6958-0.6953,1.2959-1.3848,1.8345-2.1064
				c0.4224-0.5664,1.2241-0.6836,1.7915-0.2598c0.5664,0.4229,0.6831,1.2246,0.2603,1.791
				c-0.6133,0.8213-1.2925,1.6016-2.0757,2.3857l-0.1577,0.1553C45.0342,69.2866,44.7153,69.4048,44.397,69.4048z M48.6123,63.3726
				c-0.1763,0-0.3555-0.0371-0.5269-0.1143c-0.644-0.291-0.9297-1.0498-0.6382-1.6934c0.2783-0.6152,0.5239-1.2207,0.7676-1.8193
				c0.1475-0.3623,0.2939-0.7217,0.4458-1.0801c0.2744-0.6523,1.0298-0.958,1.6768-0.6807c0.6514,0.2754,0.9561,1.0264,0.6807,1.6768
				c-0.1465,0.3486-0.2891,0.6973-0.4316,1.0488c-0.2559,0.6289-0.5146,1.2637-0.8071,1.9092
				C49.5654,63.0933,49.0996,63.3726,48.6123,63.3726z M51.8521,56.7329c-0.2598,0-0.5215-0.0791-0.748-0.2422
				c-0.5732-0.4131-0.7031-1.2139-0.2891-1.7871c0.5283-0.7324,1.1152-1.4189,1.793-2.0967c0.1602-0.1602,0.3193-0.3125,0.4766-0.46
				c0.5166-0.4824,1.3262-0.4551,1.8096,0.0615c0.4824,0.5176,0.4551,1.3271-0.0615,1.8096
				c-0.1377,0.1279-0.2754,0.2607-0.4141,0.3994c-0.5801,0.5801-1.0801,1.1631-1.5273,1.7842
				C52.6411,56.5483,52.2495,56.7329,51.8521,56.7329z M57.4067,51.9341c-0.4629,0-0.9092-0.252-1.1367-0.6904
				c-0.3262-0.627-0.0811-1.3999,0.5459-1.7261c0.9941-0.5156,1.9805-0.917,2.9346-1.3052c0.6523-0.2632,1.4385,0.0337,1.7051,0.688
				c0.2666,0.6548-0.0107,1.3862-0.666,1.6528l-0.0752,0.0303c-0.9414,0.3828-1.8301,0.7451-2.7188,1.2061
				C57.8071,51.8872,57.606,51.9341,57.4067,51.9341z M64.1323,48.8423c-0.4375,0-0.8643-0.2251-1.1035-0.6299
				c-0.3594-0.6089-0.1562-1.3936,0.4521-1.7529c0.8408-0.4961,1.625-1.0571,2.3984-1.7158c0.54-0.4595,1.3457-0.394,1.8047,0.144
				c0.458,0.5381,0.3936,1.3457-0.1445,1.8042c-0.8867,0.7559-1.7891,1.4009-2.7578,1.9727
				C64.5776,48.7847,64.354,48.8423,64.1323,48.8423z M69.6509,43.9629c-0.2754,0-0.5527-0.0889-0.7871-0.2715
				c-0.5566-0.4351-0.6562-1.2397-0.2207-1.7969c0.6582-0.8423,1.0908-1.6128,1.3232-2.3555
				c0.2109-0.6743,0.9238-1.0503,1.6045-0.8394c0.6738,0.2114,1.0498,0.9297,0.8389,1.604c-0.3262,1.042-0.8984,2.0776-1.749,3.167
				C70.4077,43.7935,70.0317,43.9629,69.6509,43.9629z M71.0894,37.0312c-0.5547,0-1.0654-0.3633-1.2285-0.9229
				c-0.2266-0.7808-0.5752-1.6582-1.0957-2.7622c-0.3018-0.6392-0.0283-1.4023,0.6104-1.7041
				c0.6426-0.3013,1.4043-0.0278,1.7041,0.6113c0.5801,1.229,0.9746,2.2266,1.2402,3.1401c0.1973,0.6792-0.1934,1.3892-0.8721,1.5864
				C71.3286,37.0146,71.2085,37.0312,71.0894,37.0312z"/>
		</g>
		<g>
			<path fill="#4D5152" d="M32.9888,66.8511c-0.3276,0-0.6553-0.125-0.9053-0.375c-0.4995-0.5-0.4995-1.3105,0-1.8105l1.124-1.124
				c0.5-0.5,1.3105-0.5,1.8105,0c0.4995,0.5,0.4995,1.3105,0,1.8105l-1.124,1.124C33.644,66.7261,33.3164,66.8511,32.9888,66.8511z
				 M37.1089,62.731c-0.3276,0-0.6553-0.125-0.9053-0.375c-0.4995-0.5-0.4995-1.3105,0-1.8105l2.2471-2.2471
				c0.5-0.5,1.3105-0.5,1.8105,0c0.4995,0.5,0.4995,1.3105,0,1.8105l-2.2471,2.2471C37.7642,62.606,37.4365,62.731,37.1089,62.731z
				 M42.3521,57.4878c-0.3276,0-0.6553-0.125-0.9053-0.375c-0.4995-0.5-0.4995-1.3105,0-1.8105l2.2471-2.2471
				c0.5-0.5,1.3105-0.5,1.8105,0c0.4995,0.5,0.4995,1.3105,0,1.8105l-2.2471,2.2471C43.0073,57.3628,42.6797,57.4878,42.3521,57.4878
				z M47.5957,52.2446c-0.3276,0-0.6553-0.125-0.9053-0.375c-0.4995-0.5-0.4995-1.3105,0-1.8105l2.2471-2.2471
				c0.5-0.5,1.3101-0.5,1.8101,0s0.5,1.3105,0,1.8105l-2.2466,2.2471C48.251,52.1196,47.9233,52.2446,47.5957,52.2446z
				 M52.8384,47.001c-0.3281,0-0.6553-0.125-0.9053-0.375c-0.5-0.5-0.5-1.3105,0-1.8101l2.248-2.2471
				c0.5-0.501,1.3105-0.4995,1.8105,0.0005s0.5,1.3105,0,1.8101l-2.248,2.2471C53.4937,46.8765,53.1655,47.001,52.8384,47.001z
				 M58.0825,41.7578c-0.3271,0-0.6553-0.1245-0.9053-0.3745c-0.5-0.5-0.5-1.3105,0-1.8105l2.2471-2.2471
				c0.5-0.5,1.3105-0.5,1.8105,0s0.5,1.3105,0,1.8105l-2.2471,2.2471C58.7378,41.6333,58.4097,41.7578,58.0825,41.7578z
				 M63.3257,36.5146c-0.3271,0-0.6553-0.125-0.9053-0.3745c-0.5-0.5-0.5-1.3105,0-1.8105l2.2471-2.2471c0.5-0.5,1.3105-0.5,1.8105,0
				s0.5,1.3105,0,1.8105l-2.2471,2.2471C63.981,36.3896,63.6528,36.5146,63.3257,36.5146z"/>
		</g>
	</g>
</symbol>

<symbol id="icon-allergen-sesame" viewBox="0 0 98.5601 98.5601">
	<g>
		<g>
			<circle fill="#FFFDE3" cx="49.28" cy="49.28" r="48"/>
			<path fill="#4D5152" d="M49.28,98.559C22.107,98.559,0,76.453,0,49.28S22.107,0,49.28,0c27.172,0,49.279,22.107,49.279,49.28
				S76.452,98.559,49.28,98.559z M49.28,2.56c-25.762,0-46.72,20.958-46.72,46.72s20.958,46.719,46.72,46.719
				S95.999,75.042,95.999,49.28S75.042,2.56,49.28,2.56z"/>
		</g>
	</g>
	<g>
		<g>
			<path fill="#FFB856" d="M43.496,74.346c0,6.568-3.442,7.689-7.689,7.689s-7.689-1.121-7.689-7.689
				c0-10.842,7.689-14.652,7.689-14.652S43.496,63.505,43.496,74.346z"/>
			<path fill="#FFB856" d="M30.004,49.539c-6.568,0-7.689-3.442-7.689-7.689s1.121-7.689,7.689-7.689
				c10.843,0,14.652,7.689,14.652,7.689S40.846,49.539,30.004,49.539z"/>
			<path fill="#FFB856" d="M55.969,34.299c-4.644-4.645-3.002-7.871,0-10.874c3.004-3.003,6.23-4.645,10.875,0
				c7.666,7.667,4.924,15.797,4.924,15.797S63.636,41.966,55.969,34.299z"/>
			<path fill="#FFB856" d="M67.29,56.391c4.643,4.644,3.002,7.871,0,10.873c-3.003,3.004-6.23,4.645-10.874,0
				c-7.667-7.666-4.925-15.797-4.925-15.797S59.622,48.724,67.29,56.391z"/>
		</g>
		<path fill="#4C5051" d="M35.807,83.311c-1.925,0-4.373-0.188-6.229-1.656c-1.841-1.457-2.736-3.848-2.736-7.309
			c0-5.982,2.251-9.941,4.14-12.208c2.071-2.487,4.17-3.544,4.258-3.587c0.357-0.178,0.776-0.178,1.133,0
			c0.088,0.043,2.188,1.1,4.258,3.587c1.889,2.267,4.14,6.226,4.14,12.208c0,3.461-0.896,5.852-2.736,7.309
			C40.18,83.124,37.732,83.311,35.807,83.311z M35.807,61.18c-0.661,0.435-1.808,1.301-2.94,2.684
			c-2.304,2.814-3.472,6.341-3.472,10.482c0,2.629,0.578,4.365,1.768,5.307c0.967,0.766,2.399,1.106,4.645,1.106
			c2.246,0,3.679-0.341,4.645-1.106c1.189-0.941,1.768-2.677,1.768-5.307c0-4.142-1.168-7.668-3.472-10.482
			C37.615,62.481,36.469,61.616,35.807,61.18z"/>
		<path fill="#4C5051" d="M30.004,50.815c-3.46,0-5.851-0.895-7.308-2.736c-1.469-1.856-1.657-4.304-1.657-6.229
			s0.188-4.373,1.657-6.229c1.457-1.841,3.848-2.736,7.308-2.736c5.982,0,9.941,2.251,12.209,4.14
			c2.486,2.071,3.543,4.17,3.586,4.258c0.177,0.357,0.177,0.776,0,1.134c-0.043,0.088-1.101,2.188-3.586,4.258
			C39.945,48.564,35.986,50.815,30.004,50.815z M30.004,35.438c-2.629,0-4.365,0.578-5.307,1.768
			c-0.765,0.966-1.106,2.399-1.106,4.645c0,2.246,0.341,3.679,1.106,4.646c0.941,1.189,2.677,1.768,5.307,1.768
			c4.142,0,7.669-1.168,10.482-3.472c1.382-1.132,2.249-2.279,2.685-2.941c-0.436-0.661-1.302-1.808-2.685-2.94
			C37.673,36.606,34.146,35.438,30.004,35.438z"/>
		<path fill="#4C5051" d="M68.142,40.975c-0.474,0-0.979-0.021-1.515-0.069c-2.938-0.268-7.329-1.475-11.56-5.705l0,0l0,0
			c-2.447-2.447-3.505-4.771-3.233-7.103c0.274-2.351,1.871-4.215,3.233-5.577c1.361-1.361,3.226-2.958,5.576-3.232
			c2.332-0.272,4.655,0.786,7.103,3.233c4.229,4.23,5.437,8.621,5.705,11.56c0.294,3.222-0.443,5.454-0.475,5.547
			c-0.127,0.377-0.424,0.674-0.802,0.802C72.098,40.458,70.532,40.975,68.142,40.975z M61.34,21.802
			c-0.135,0-0.269,0.008-0.402,0.023c-1.223,0.142-2.478,0.914-4.065,2.502c-1.589,1.588-2.36,2.842-2.503,4.066
			c-0.175,1.507,0.645,3.144,2.503,5.003l0,0c2.929,2.929,6.249,4.596,9.868,4.957c1.777,0.177,3.2-0.021,3.977-0.181
			c0.16-0.775,0.358-2.199,0.181-3.978c-0.36-3.619-2.028-6.938-4.956-9.867C64.246,22.632,62.737,21.802,61.34,21.802z"/>
		<path fill="#4C5051" d="M61.903,71.441c-2.095,0-4.192-1.076-6.391-3.274c-4.229-4.229-5.438-8.621-5.705-11.561
			c-0.293-3.223,0.443-5.453,0.475-5.547c0.128-0.377,0.424-0.674,0.802-0.801c0.094-0.032,2.325-0.769,5.548-0.476
			c2.939,0.269,7.33,1.476,11.561,5.706c2.447,2.446,3.504,4.77,3.232,7.102c-0.273,2.352-1.871,4.215-3.232,5.576
			s-3.226,2.96-5.576,3.233C62.377,71.427,62.139,71.441,61.903,71.441z M52.542,52.515c-0.16,0.774-0.358,2.199-0.182,3.979
			c0.361,3.619,2.029,6.939,4.958,9.867c1.858,1.859,3.495,2.678,5.002,2.503c1.225-0.144,2.479-0.915,4.066-2.503
			c1.589-1.588,2.36-2.842,2.503-4.066c0.174-1.506-0.643-3.143-2.503-5.002C60.564,51.471,54.493,52.11,52.542,52.515z"/>
		<path fill="#4C5051" d="M59.254,66.083c-0.311,0-0.621-0.111-0.866-0.338c-0.095-0.089-0.19-0.181-0.288-0.277
			c-0.498-0.5-0.498-1.308,0-1.806c0.499-0.498,1.308-0.498,1.805,0.001c0.073,0.072,0.145,0.142,0.217,0.207
			c0.518,0.479,0.549,1.287,0.07,1.805C59.94,65.946,59.597,66.083,59.254,66.083z"/>
		<path fill="#4C5051" d="M62.593,67.219c-0.545,0-1.05-0.352-1.22-0.9c-0.207-0.674,0.172-1.388,0.845-1.595
			c0.423-0.13,0.896-0.468,1.491-1.062c0.498-0.499,1.306-0.499,1.804,0c0.499,0.498,0.499,1.306,0,1.805
			c-0.566,0.565-1.446,1.357-2.544,1.696C62.844,67.202,62.717,67.219,62.593,67.219z"/>
	</g>
</symbol>

<symbol id="icon-allergen-sulfur-dioxide" viewBox="0 0 98.5601 98.5601">
	<g>
		<g>
			<circle fill="#FFFDE3" cx="49.28" cy="49.28" r="48"/>
			<path fill="#4D5152" d="M49.28,98.559C22.107,98.559,0,76.453,0,49.28S22.107,0,49.28,0c27.172,0,49.279,22.107,49.279,49.28
				S76.452,98.559,49.28,98.559z M49.28,2.56c-25.762,0-46.72,20.958-46.72,46.72s20.958,46.719,46.72,46.719
				S95.999,75.042,95.999,49.28S75.042,2.56,49.28,2.56z"/>
		</g>
	</g>
	<g>
		<path fill="#FFFFFF" d="M44.73,18.559c-1.887,0-3.414,1.53-3.414,3.414s1.527,3.414,3.414,3.414v11.376
			C34.49,39.04,27.663,48.83,27.663,58.384C27.663,70.32,37.34,80,49.28,80c11.939,0,21.615-9.68,21.615-21.616
			c0-9.554-6.826-19.344-17.066-21.62V25.387c1.887,0,3.414-1.53,3.414-3.414s-1.527-3.414-3.414-3.414H44.73"/>
		<path fill="#A1D9B1" d="M27.663,58.384C27.663,70.32,37.34,80,49.28,80c11.939,0,21.615-9.68,21.615-21.616"/>
		<g>
			<rect x="44.73" y="24.107" fill="#4D5152" width="9.099" height="2.56"/>
		</g>
		<g>
			<path fill="#4D5152" d="M49.28,81.28c-12.625,0-22.896-10.271-22.896-22.896c0-10.396,7.268-19.936,17.067-22.621V26.49
				c-1.968-0.559-3.415-2.372-3.415-4.517c0-2.588,2.106-4.693,4.694-4.693h9.099c2.588,0,4.695,2.105,4.695,4.693
				c0,2.145-1.447,3.958-3.414,4.517v9.272c9.797,2.686,17.066,12.225,17.066,22.621C72.176,71.009,61.905,81.28,49.28,81.28z
				 M44.73,19.84c-1.177,0-2.134,0.957-2.134,2.134s0.957,2.134,2.134,2.134c0.707,0,1.28,0.573,1.28,1.28v11.376
				c0,0.601-0.417,1.119-1.002,1.25c-9.158,2.035-16.064,10.792-16.064,20.37c0,11.214,9.123,20.336,20.337,20.336
				c11.213,0,20.336-9.122,20.336-20.336c0-9.578-6.906-18.335-16.064-20.37c-0.586-0.131-1.002-0.649-1.002-1.25V25.387
				c0-0.707,0.572-1.28,1.279-1.28c1.178,0,2.135-0.957,2.135-2.134s-0.957-2.134-2.135-2.134H44.73L44.73,19.84z"/>
		</g>
		<g>
			<path fill="#4D5152" d="M34.943,58.072c-0.707,0-1.28-0.573-1.28-1.28c0-7.733,6.291-14.024,14.023-14.024
				c0.707,0,1.28,0.572,1.28,1.279s-0.573,1.28-1.28,1.28c-6.321,0-11.464,5.144-11.464,11.465
				C36.223,57.499,35.65,58.072,34.943,58.072z"/>
		</g>
	</g>
	<g>
		<path fill="#FFFFFF" d="M43.824,70.537c-1.308,0-2.375-0.24-3.238-1.128l1.343-1.343c0.444,0.443,1.223,0.6,1.907,0.6
			c0.828,0,1.224-0.276,1.224-0.768c0-0.204-0.048-0.372-0.168-0.504c-0.108-0.108-0.288-0.192-0.564-0.228l-1.031-0.145
			c-0.755-0.107-1.332-0.359-1.715-0.755c-0.396-0.408-0.587-0.983-0.587-1.716c0-1.559,1.175-2.698,3.118-2.698
			c1.224,0,2.147,0.288,2.878,1.02l-1.319,1.319c-0.54-0.54-1.247-0.504-1.619-0.504c-0.731,0-1.031,0.42-1.031,0.792
			c0,0.107,0.036,0.264,0.168,0.396c0.108,0.107,0.288,0.216,0.587,0.252l1.032,0.144c0.768,0.108,1.319,0.348,1.679,0.708
			c0.456,0.443,0.635,1.079,0.635,1.871C47.122,69.589,45.623,70.537,43.824,70.537z"/>
		<path fill="#FFFFFF" d="M53.866,69.577c-0.623,0.624-1.344,0.96-2.387,0.96s-1.763-0.336-2.387-0.96
			c-0.899-0.899-0.863-2.099-0.863-3.382s-0.036-2.482,0.863-3.382c0.624-0.624,1.344-0.96,2.387-0.96s1.764,0.336,2.387,0.96
			c0.899,0.899,0.863,2.099,0.863,3.382S54.765,68.677,53.866,69.577z M52.319,64.096c-0.156-0.204-0.456-0.372-0.84-0.372
			s-0.684,0.168-0.84,0.372c-0.191,0.252-0.312,0.539-0.312,2.099c0,1.559,0.12,1.835,0.312,2.087
			c0.156,0.204,0.456,0.384,0.84,0.384s0.684-0.18,0.84-0.384c0.191-0.252,0.312-0.528,0.312-2.087
			C52.63,64.635,52.51,64.348,52.319,64.096z"/>
		<path fill="#FFFFFF" d="M55.639,70.465v-0.888l1.547-1.679c0.156-0.168,0.217-0.276,0.217-0.456c0-0.233-0.133-0.396-0.385-0.396
			c-0.18,0-0.396,0.084-0.396,0.414h-0.983c0-0.84,0.636-1.302,1.379-1.302c0.792,0,1.367,0.485,1.367,1.289
			c0,0.45-0.186,0.689-0.527,1.05l-1.02,1.079h1.547v0.888H55.639z"/>
	</g>
</symbol>

<symbol id="icon-allergen-soy" viewBox="0 0 98.5601 98.5601">
	<g>
		<g>
			<circle fill="#FFFDE3" cx="49.2798" cy="49.2798" r="48"/>
			<path fill="#4D5152" d="M49.2798,98.5601C22.1069,98.5601,0,76.4526,0,49.2798S22.1069,0,49.2798,0
				s49.2803,22.1069,49.2803,49.2798S76.4526,98.5601,49.2798,98.5601z M49.2798,2.5596c-25.7617,0-46.7202,20.9585-46.7202,46.7202
				s20.9585,46.7197,46.7202,46.7197s46.7197-20.958,46.7197-46.7197S75.0415,2.5596,49.2798,2.5596z"/>
		</g>
	</g>
	<g>
		<g>
			<path fill="#A1D9B1" d="M33.2637,74.7827c0.31,0.0283,0.6255,0.0498,0.9438,0.0498c2.5967,0,5.086-0.958,7.0205-2.706
				c1.4956-1.3291,2.5757-3.043,3.1226-4.9522c0.0142-0.0498,0.0303-0.0986,0.0493-0.1455c0.7632-2.6338,1.4688-4.3027,2.9487-5.542
				c1.1363-0.914,2.6202-1.4707,4.6353-2.0547c0.0488-0.0195,0.0986-0.0361,0.1494-0.0507c1.2988-0.3741,2.5059-0.9932,3.5957-1.8506
				c1.752-1.3574,3.0518-3.2735,3.6592-5.3936c0.0127-0.0459,0.0283-0.0888,0.0449-0.1328c0.7656-2.645,1.4746-4.3223,2.9639-5.564
				c1.1387-0.9121,2.6162-1.4643,4.6182-2.0449c0.0498-0.02,0.1015-0.0381,0.1542-0.0532c1.3731-0.3926,2.6377-1.0562,3.7667-1.9814
				c2.4804-2.001,3.9023-4.9722,3.9023-8.1504c0-0.2842-0.0225-0.563-0.0449-0.8428c-0.0039-0.0547-0.0059-0.1094-0.0039-0.1641
				c0.2119-7.8413,2.6972-10.8427,3.3144-11.4692c0.0235-0.0259,0.0469-0.0503,0.0723-0.0747
				c0.1055-0.1011,0.2822-0.3213,0.2822-0.6543c0-0.7393-0.9433-1.2354-1.5791-0.6182c-3.3096,3.0601-7.6377,3.3565-11.4336,3.3941
				c-0.0508,0.0009-0.1006-0.0015-0.1514-0.0064c-0.3085-0.0278-0.622-0.0483-0.9404-0.0483c-2.5937,0-5.084,0.958-7.0195,2.7046
				c-1.4961,1.3305-2.5772,3.0434-3.1231,4.9536c-0.0146,0.0488-0.0312,0.0976-0.0507,0.1445
				c-0.7637,2.6372-1.4707,4.3091-2.9541,5.5469c-1.1372,0.9136-2.6172,1.4673-4.625,2.0493
				c-0.0503,0.02-0.1016,0.0381-0.1543,0.0532c-1.2998,0.3711-2.5083,0.9912-3.5987,1.8496
				c-1.7514,1.3579-3.0488,3.273-3.6543,5.3926c-0.0136,0.0488-0.0307,0.0977-0.0503,0.1441
				c-0.7656,2.6396-1.4741,4.3144-2.9619,5.5537c-1.1372,0.9121-2.6162,1.4648-4.6216,2.0459
				c-0.0493,0.0205-0.0981,0.0381-0.1499,0.0517c-1.375,0.3936-2.6381,1.0576-3.7656,1.9824c-2.48,2-3.9018,4.9688-3.9018,8.1485
				c0,0.2851,0.0205,0.5654,0.0429,0.8428c0.0044,0.0546,0.0064,0.1093,0.0044,0.165c-0.2207,8.1465-2.8637,11.0498-3.3857,11.5449
				c-0.1065,0.0996-0.2837,0.3213-0.2837,0.6533c0,0.7383,0.9375,1.2412,1.5786,0.6182c3.3101-3.0566,7.6343-3.3555,11.4277-3.3945
				c0.0049,0,0.0113,0,0.0162,0C33.1699,74.7769,33.2173,74.7788,33.2637,74.7827z"/>
			<path fill="#4D5152" d="M21.0215,79.7329c-1.2134,0-2.2002-0.9775-2.2002-2.1797c0-0.5996,0.251-1.1777,0.689-1.5879
				c0.2773-0.2627,2.7695-2.8467,2.981-10.6445c-0.0264-0.3389-0.0479-0.6533-0.0479-0.9736c0-3.5674,1.5957-6.9004,4.3779-9.1445
				c1.252-1.0273,2.6733-1.7754,4.2173-2.2168l0.1455-0.0508c1.8501-0.5361,3.1943-1.0264,4.1772-1.8145
				c1.2261-1.022,1.8384-2.5166,2.5332-4.9121l0.0498-0.1406c0.6792-2.3784,2.1353-4.5278,4.1001-6.0513
				c1.2109-0.9536,2.5698-1.6514,4.0312-2.0688l0.1494-0.0518c1.8516-0.5366,3.1968-1.0278,4.1797-1.8179
				c1.2227-1.0205,1.834-2.5132,2.5264-4.9048l0.0479-0.1362c0.6143-2.147,1.8252-4.0688,3.5049-5.5625
				c2.1611-1.9507,4.959-3.0278,7.8701-3.0278c0.3574,0,0.709,0.022,1.0557,0.0532c3.5811-0.0337,7.626-0.3018,10.6006-3.0527
				c0.4033-0.3916,0.9531-0.6191,1.5254-0.6191c1.2148,0,2.2031,0.9766,2.2031,2.1772c0,0.5996-0.2402,1.1602-0.6768,1.5786
				c-0.5029,0.5122-2.792,3.2026-2.9932,10.6543c0.0254,0.3423,0.0498,0.6543,0.0498,0.9722c0,3.5679-1.5967,6.9019-4.3789,9.1465
				c-1.2529,1.0269-2.6748,1.7744-4.2188,2.2158l-0.1494,0.0522c-1.8477,0.5356-3.1904,1.0259-4.1748,1.8145
				c-1.2266,1.0234-1.8398,2.521-2.5342,4.9204l-0.0322,0.0967c-0.6934,2.4131-2.1514,4.5635-4.1172,6.0859
				c-1.208,0.9502-2.5645,1.6484-4.0254,2.0693l-0.1475,0.0498c-1.8047,0.5234-3.208,1.0332-4.1895,1.8223
				c-1.2197,1.0215-1.8296,2.5127-2.5215,4.9014l-0.0435,0.125c-0.6191,2.1611-1.8306,4.082-3.5078,5.5732
				c-2.1587,1.9512-4.957,3.0293-7.8706,3.0293c-0.3574,0-0.7119-0.0234-1.0601-0.0557c-3.5811,0.0361-7.6226,0.3057-10.5996,3.0547
				C22.1445,79.5044,21.5942,79.7329,21.0215,79.7329z M31.9556,55.3765c-0.0776,0.0303-0.1562,0.0557-0.2383,0.0771
				c-1.1802,0.3379-2.2925,0.9238-3.2803,1.7344c-2.1855,1.7627-3.4341,4.3691-3.4341,7.1592c0,0.25,0.0195,0.4961,0.0391,0.7393
				c0.0083,0.1045,0.0112,0.208,0.0078,0.3135c-0.1421,5.2412-1.2524,8.4688-2.271,10.3486
				c3.2627-1.9893,6.9854-2.2178,10.3154-2.252c0.123,0.0107,0.1948,0.0039,0.2769,0.0107c2.5679,0.2324,5.0952-0.6113,6.999-2.3311
				c1.3213-1.1738,2.2695-2.6777,2.75-4.3545c0.019-0.0674,0.041-0.1348,0.0654-0.2021c0.8086-2.7783,1.6191-4.6719,3.3413-6.1143
				c1.3218-1.0635,2.9731-1.6836,5.0498-2.2881c0.0664-0.0244,0.1338-0.0459,0.2021-0.0654c1.1426-0.3291,2.2051-0.877,3.1592-1.627
				c1.5459-1.1982,2.6865-2.8799,3.2197-4.7402c0.0156-0.0576,0.0361-0.1182,0.0586-0.1816c0.8125-2.7949,1.627-4.6997,3.3613-6.1455
				c1.3193-1.0571,2.9629-1.6748,5.0273-2.2759c0.0693-0.0259,0.1396-0.0493,0.2109-0.0698c1.207-0.3452,2.3203-0.9307,3.3086-1.7407
				c2.1855-1.7627,3.4336-4.3706,3.4336-7.1606c0-0.249-0.0205-0.4927-0.04-0.7378c-0.0088-0.1143-0.0117-0.2144-0.0078-0.3149
				c0.1416-5.2466,1.2822-8.4917,2.2949-10.3618c-3.2686,2.0034-7.0049,2.2324-10.3467,2.2651
				c-0.1133,0.0005-0.2012-0.0034-0.2861-0.0122c-0.2637-0.0234-0.5391-0.0425-0.8184-0.0425c-2.2764,0-4.4648,0.8438-6.1621,2.375
				c-1.3223,1.1763-2.2715,2.6802-2.75,4.355c-0.0225,0.0752-0.0439,0.1421-0.0684,0.2056
				c-0.8086,2.7812-1.6211,4.6768-3.3467,6.1172c-1.3184,1.0591-2.9658,1.6782-5.0366,2.2808
				c-0.0688,0.0254-0.1387,0.0488-0.21,0.0693c-1.1416,0.3257-2.2041,0.8726-3.1597,1.625
				c-1.5449,1.1978-2.6841,2.8784-3.2153,4.7383c-0.019,0.0674-0.0425,0.1382-0.0693,0.208
				c-0.8105,2.7837-1.625,4.6812-3.3545,6.1216C35.665,54.1577,34.0215,54.7759,31.9556,55.3765z"/>
		</g>
		<g>
			<path fill="#FFB957" d="M28.7686,64.3472c0,3,2.4399,5.4385,5.4389,5.4385c3,0,5.441-2.4385,5.441-5.4385
				c0-2.999-2.441-5.4385-5.441-5.4385C31.2085,58.9087,28.7686,61.3482,28.7686,64.3472z"/>
			<path fill="#4D5152" d="M34.2075,71.0659c-3.7051,0-6.7188-3.0146-6.7188-6.7188s3.0137-6.7188,6.7188-6.7188
				c3.7061,0,6.7207,3.0146,6.7207,6.7188S37.9136,71.0659,34.2075,71.0659z M34.2075,60.189c-2.2935,0-4.1592,1.8652-4.1592,4.1582
				s1.8657,4.1582,4.1592,4.1582c2.2944,0,4.1611-1.8652,4.1611-4.1582S36.502,60.189,34.2075,60.189z"/>
		</g>
		<g>
			<path fill="#FFB957" d="M43.8062,49.3096c0,2.9985,2.4399,5.4389,5.4384,5.4389c3,0,5.4415-2.4404,5.4415-5.4389
				c0-2.9986-2.4415-5.4375-5.4415-5.4375C46.2461,43.8721,43.8062,46.311,43.8062,49.3096z"/>
			<path fill="#4D5152" d="M49.2446,56.0288c-3.7046,0-6.7183-3.0146-6.7183-6.7192c0-3.7041,3.0137-6.7173,6.7183-6.7173
				c3.7061,0,6.7217,3.0132,6.7217,6.7173C55.9663,53.0142,52.9507,56.0288,49.2446,56.0288z M49.2446,45.1519
				c-2.293,0-4.1587,1.8652-4.1587,4.1577c0,2.2935,1.8657,4.1587,4.1587,4.1587c2.2949,0,4.1611-1.8652,4.1611-4.1587
				C53.4058,47.0171,51.5396,45.1519,49.2446,45.1519z"/>
		</g>
		<g>
			<path fill="#FFB957" d="M58.8413,34.271c0,3.0005,2.4405,5.4419,5.4405,5.4419s5.4394-2.4414,5.4394-5.4419
				c0-2.9985-2.4394-5.4385-5.4394-5.4385S58.8413,31.2725,58.8413,34.271z"/>
			<path fill="#4D5152" d="M64.2817,40.9927c-3.7061,0-6.7207-3.0151-6.7207-6.7217c0-3.7046,3.0146-6.7183,6.7207-6.7183
				c3.7051,0,6.7197,3.0137,6.7197,6.7183C71.0015,37.9775,67.9868,40.9927,64.2817,40.9927z M64.2817,30.1123
				c-2.2939,0-4.1602,1.8657-4.1602,4.1587c0,2.2949,1.8662,4.1621,4.1602,4.1621s4.1592-1.8672,4.1592-4.1621
				C68.4409,31.978,66.5757,30.1123,64.2817,30.1123z"/>
		</g>
	</g>
</symbol>
</defs>
</svg>
